<svg width="196" height="147" viewBox="0 0 196 147" fill="none" xmlns="http://www.w3.org/2000/svg">
<g clip-path="url(#clip0)">
<path d="M8.40953 0H186.82C189.05 0 191.189 0.886002 192.766 2.46309C194.344 4.04019 195.23 6.17918 195.23 8.40953V128.858H0V8.40953C0 6.17918 0.886002 4.04019 2.46309 2.46309C4.04019 0.886002 6.17918 0 8.40953 0V0Z" fill="black"/>
<path d="M0 122.568H195.23V140.025C195.23 141.875 194.495 143.649 193.186 144.957C191.878 146.265 190.104 147 188.254 147H6.97547C5.12546 147 3.35123 146.265 2.04307 144.957C0.734915 143.649 5.99978e-07 141.875 0 140.025L0 122.568Z" fill="black"/>
<mask id="mask0" mask-type="alpha" maskUnits="userSpaceOnUse" x="0" y="0" width="863" height="650">
<rect width="863" height="649.8" rx="40" fill="#C4C4C4"/>
</mask>
<g mask="url(#mask0)">
<path opacity="0.4" d="M0.588911 -6.26542C-0.344419 -5.28534 -0.703787 -3.90433 -1.10573 -2.60727C-4.34173 7.84461 -12.3159 16.2524 -21.3971 22.2596C-25.2429 24.8041 -29.9248 28.2155 -29.0835 32.7749C-28.6304 35.2251 -26.6429 37.0276 -25.1662 39.022C-23.6289 41.1315 -22.5928 43.5675 -22.1375 46.1427C-21.6822 48.718 -21.8199 51.364 -22.54 53.8774C-24.2193 59.5677 -28.9132 64.8758 -27.4604 70.6295C-26.5645 74.1763 -23.5227 76.6916 -20.5984 78.8539C-16.0362 82.2317 -11.3286 85.3952 -6.47578 88.3446C-3.22276 90.3219 0.238056 92.2461 4.02928 92.4962C7.36747 92.7172 10.6375 91.6189 13.8071 90.5326C16.5764 89.5851 19.4156 88.5965 21.6518 86.6963C23.1115 85.4558 24.2747 83.8554 25.8961 82.8394C29.7044 80.4543 34.5958 81.9655 38.9627 82.9816C49.3494 85.3713 60.214 84.5092 70.0998 80.5108C85.1404 74.3871 96.6043 61.5278 111.316 54.6279C117.642 51.6602 124.522 49.8183 130.38 45.9974C133.606 43.8897 136.442 41.2311 138.759 38.1413C143.187 32.2215 145.582 24.6755 144.891 17.2907C144.199 9.90585 140.324 2.78659 134.239 -1.3856C127.724 -5.84049 119.496 -6.68178 112.084 -9.36329C104.43 -12.1305 97.6211 -16.8903 90.0404 -19.858C77.6465 -24.7036 63.3638 -24.4226 51.1607 -19.0887C42.9106 -15.4802 34.5481 -7.04503 25.3596 -6.40935C18.8127 -5.95872 5.70008 -11.6421 0.588911 -6.26542Z" fill="#31B057"/>
<circle cx="98.5" cy="72.5" r="59.5" fill="#9B51E0"/>
<path opacity="0.4" d="M229.262 165.22C230.231 164.209 230.604 162.785 231.021 161.447C234.379 150.669 242.653 141.998 252.077 135.803C256.067 133.179 260.925 129.661 260.052 124.959C259.582 122.433 257.52 120.574 255.988 118.517C254.392 116.342 253.317 113.829 252.845 111.174C252.372 108.518 252.515 105.789 253.262 103.197C255.005 97.3292 259.876 91.8552 258.368 85.9217C257.439 82.2641 254.282 79.6702 251.248 77.4403C246.514 73.957 241.629 70.6946 236.593 67.653C233.218 65.614 229.627 63.6296 225.693 63.3717C222.229 63.1437 218.835 64.2764 215.546 65.3966C212.673 66.3737 209.727 67.3933 207.406 69.3529C205.892 70.6321 204.685 72.2825 203.002 73.3303C199.05 75.7899 193.975 74.2315 189.443 73.1836C178.666 70.7193 167.392 71.6083 157.134 75.7316C141.527 82.0467 129.631 95.3078 114.365 102.423C107.801 105.484 100.661 107.383 94.5835 111.324C91.2353 113.497 88.2926 116.239 85.8884 119.425C81.2934 125.53 78.8086 133.312 79.5261 140.927C80.2436 148.543 84.2643 155.885 90.5788 160.187C97.3388 164.781 105.877 165.649 113.568 168.414C121.51 171.268 128.576 176.177 136.442 179.237C149.303 184.234 164.123 183.944 176.786 178.444C185.347 174.722 194.024 166.024 203.559 165.368C210.352 164.903 223.959 170.764 229.262 165.22Z" fill="#31B057"/>
</g>
<path d="M19.3829 74.3929C17.7321 71.6979 15.2646 69.2304 15.6496 66.1737C20.1762 66.6929 24.4696 65.5904 28.6171 63.677C32.7646 61.7637 36.6146 59.2612 40.4937 56.817C42.0221 55.8545 43.5446 54.9095 45.0613 54.0345C47.4646 52.652 49.8504 51.1178 52.2946 49.7703C55.7946 47.8453 59.3704 46.2703 63.2963 45.967C64.0021 45.9145 64.7196 45.9028 65.4371 45.9145C70.2788 46.0137 75.2955 47.3087 79.5538 45.1387L79.8163 44.9987C82.2255 43.6745 83.9872 41.417 86.058 39.597C87.5466 38.3091 89.1676 37.1828 90.8938 36.237C94.0322 34.487 97.4388 33.087 100.659 31.4361C101.48 31.0079 102.261 30.5061 102.992 29.937L103.54 29.4995L103.663 29.3945L104.06 29.0561L104.311 28.8345L104.567 28.6011L104.766 28.4145L105.086 28.1111L105.121 28.0761L105.635 27.5686L105.839 27.3645L106.195 27.0028L106.405 26.787L107.478 25.6845C107.898 25.2586 108.33 24.8386 108.773 24.4303L109.193 24.057L109.316 23.952L109.654 23.6661L109.817 23.532L110.15 23.2753L110.313 23.147L110.815 22.7853C110.97 22.6791 111.134 22.5854 111.305 22.5053L110.255 19.8453L113.393 18.5503L156.671 123.58L153.532 124.875L128.77 64.7912L128.595 64.9662C122.858 70.6237 115.834 74.8034 108.125 77.1462H108.079C103.768 78.447 98.9438 79.3687 95.3155 81.8129C94.0289 82.6491 92.9109 83.7196 92.0197 84.9687C91.168 86.1821 90.573 87.5646 89.6572 88.7312C89.488 88.9471 89.3013 89.1571 89.1147 89.3554C88.0536 90.4051 86.8798 91.3344 85.6147 92.1262L85.0313 92.5054C81.2731 95.1518 77.3575 97.5674 73.3063 99.7387C70.9687 100.956 68.5312 101.971 66.0204 102.772C64.1946 103.355 62.3104 103.781 60.4846 104.359C59.2541 104.729 58.0593 105.21 56.9146 105.794C53.8229 107.41 51.4488 109.941 49.2029 112.642C47.2371 115.01 45.3704 117.513 43.2121 119.671C41.8646 121.019 39.8054 122.285 38.1662 121.497C38.0531 121.44 37.944 121.376 37.8396 121.305C37.8862 121.217 37.9329 121.13 37.9738 121.036C39.2629 118.335 37.6762 114.999 35.5412 112.829C35.3196 112.607 35.0921 112.385 34.8587 112.17C34.6254 111.954 34.2112 111.586 33.8729 111.295C32.0471 109.725 30.1046 108.267 28.8387 106.243C27.8744 104.542 27.2187 102.683 26.9021 100.754C26.3187 98.0062 25.9337 95.1771 24.4404 92.8379C23.4546 91.2921 22.0021 89.9737 20.9404 88.4921C20.2682 87.6181 19.8269 86.589 19.6571 85.4996C19.4179 83.5979 20.2987 81.7429 20.6312 79.8529C20.7285 79.3378 20.7677 78.8134 20.7479 78.2895C20.6303 76.896 20.1606 75.5551 19.3829 74.3929Z" fill="url(#paint0_linear)"/>
<path d="M152.4 124.024L155.49 122.75L112.928 19.487L109.838 20.7608L152.4 124.024Z" fill="#D6D8E1"/>
<path d="M25.4905 92.482C26.9605 94.7803 27.3455 97.5628 27.9113 100.264C28.2238 102.161 28.8696 103.988 29.8188 105.66C31.0672 107.649 32.9747 109.09 34.7655 110.63C35.0922 110.91 35.4188 111.213 35.7338 111.487C36.0488 111.761 36.1889 111.913 36.4047 112.135C38.5047 114.264 40.0622 117.542 38.7963 120.202C38.7555 120.29 38.7147 120.377 38.6622 120.465C38.7648 120.534 38.872 120.596 38.983 120.651C40.593 121.427 42.6172 120.179 43.9414 118.855C46.0647 116.731 47.9022 114.27 49.833 111.942C52.038 109.282 54.3772 106.797 57.4164 105.205C58.5386 104.631 59.71 104.158 60.9164 103.793C62.7072 103.21 64.5622 102.795 66.3589 102.229C68.8294 101.443 71.2279 100.445 73.528 99.2487C77.5107 97.114 81.3601 94.7394 85.0547 92.1378L85.6031 91.7645C86.8471 90.986 88.0014 90.0724 89.0448 89.0403C89.2314 88.842 89.4122 88.6378 89.5756 88.4278C90.4739 87.2612 91.0631 85.9195 91.9089 84.7295C92.7862 83.5011 93.8864 82.4485 95.1522 81.6261C98.7223 79.252 103.459 78.342 107.7 77.0645H107.746C115.325 74.7608 122.232 70.6511 127.871 65.0886C128.34 64.6991 128.69 64.1857 128.881 63.607C129.061 62.7845 128.618 61.9736 128.192 61.2736C127.695 60.4258 127.21 59.5703 126.74 58.7069C124.587 54.7898 122.664 50.7501 120.982 46.6086C120.615 45.7044 120.259 44.7944 119.915 43.8786C119.032 41.5453 118.227 39.1789 117.5 36.7794C117.261 35.9803 117.027 35.1869 116.806 34.3819C116.765 34.2302 116.724 34.0669 116.677 33.8919C115.709 29.9544 114.414 20.8719 110.43 23.5961C109.241 24.4402 108.138 25.3975 107.134 26.4544C106.358 27.2419 105.6 28.0527 104.801 28.8344C104.151 29.4755 103.463 30.0774 102.741 30.6369C102.01 31.1971 101.229 31.6891 100.408 32.1069C97.2464 33.7286 93.8922 35.0878 90.8064 36.8261C89.1094 37.7555 87.5158 38.8623 86.0523 40.1278C84.0164 41.9244 82.2839 44.1411 79.9156 45.4419L79.6531 45.5761C75.4647 47.7111 70.5356 46.4336 65.7755 46.3344C65.0697 46.3344 64.3639 46.3344 63.6697 46.3869C59.808 46.6844 56.273 48.2361 52.8547 50.1261C50.4513 51.4561 48.1063 52.9611 45.7438 54.3203C44.2505 55.1778 42.7572 56.1053 41.2522 57.0561C37.4314 59.4595 33.5697 61.9853 29.5855 63.7995C25.6013 65.6136 21.2847 66.7686 16.8338 66.2553C16.4546 69.2595 18.8813 71.6861 20.503 74.3403C21.2772 75.4789 21.7489 76.7958 21.8738 78.167C21.8927 78.6811 21.8535 79.1958 21.7572 79.7011C21.4305 81.562 20.5905 83.382 20.8005 85.2545C20.971 86.3165 21.4041 87.319 22.0605 88.1712C23.093 89.6645 24.5047 90.9653 25.4905 92.482Z" fill="#E6E8ED"/>
<path d="M102.729 30.6428L105.985 38.372L116.671 33.8686C115.709 29.9545 114.414 20.8719 110.43 23.5961C107.542 25.5678 105.588 28.4495 102.729 30.6428Z" fill="#5A5773"/>
<path d="M79.9208 45.4478L81.3091 48.7495L93.6408 43.5578L90.8058 36.8262C89.1088 37.7556 87.5152 38.8623 86.0516 40.1278C84.0041 41.9303 82.2949 44.147 79.9208 45.4478Z" fill="#5A5773"/>
<path d="M52.8663 50.1379L56.6522 59.1212L68.9839 53.9295L65.7872 46.3462C65.0814 46.3462 64.3755 46.3462 63.6813 46.3987C59.8197 46.6904 56.2847 48.242 52.8663 50.1379Z" fill="#5A5773"/>
<path d="M29.5798 63.7878L31.9832 69.4928L44.3149 64.3011L41.2582 57.0444C37.4432 59.4711 33.5757 61.9911 29.5798 63.7878Z" fill="#5A5773"/>
<path d="M98.8337 55.8667L111.168 50.6768L105.978 38.3425L93.6437 43.5324L98.8337 55.8667Z" fill="#5A5773"/>
<path d="M74.1684 66.2451L86.5027 61.0552L81.3128 48.7209L68.9785 53.9108L74.1684 66.2451Z" fill="#5A5773"/>
<path d="M49.5048 76.6289L61.8391 71.439L56.6492 59.1047L44.3149 64.2946L49.5048 76.6289Z" fill="#5A5773"/>
<path d="M21.757 79.7128L24.8428 87.0395L37.1745 81.8478L31.9828 69.5161L20.5028 74.3461C21.277 75.4847 21.7488 76.8016 21.8736 78.1728C21.8929 78.6889 21.8538 79.2055 21.757 79.7128Z" fill="#5A5773"/>
<path d="M111.176 50.7037L116.368 63.0354L126.739 58.6721C124.586 54.7549 122.664 50.7152 120.982 46.5737L111.176 50.7037Z" fill="#5A5773"/>
<path d="M91.6941 73.3901L104.028 68.2002L98.8384 55.8659L86.5042 61.0558L91.6941 73.3901Z" fill="#5A5773"/>
<path d="M67.0231 83.771L79.3574 78.5811L74.1675 66.2468L61.8332 71.4367L67.0231 83.771Z" fill="#5A5773"/>
<path d="M42.3596 94.1606L54.6938 88.9707L49.5039 76.6364L37.1697 81.8264L42.3596 94.1606Z" fill="#5A5773"/>
<path d="M104.03 68.2271L107.746 77.0529C112.036 75.7484 116.127 73.8601 119.903 71.4412L116.362 63.0295L104.03 68.2271Z" fill="#5A5773"/>
<path d="M79.3374 78.6104L84.5291 90.9421L89.0266 89.0462C89.2132 88.8479 89.3941 88.6437 89.5574 88.4337C90.4558 87.2671 91.0449 85.9254 91.8908 84.7354C92.7681 83.5071 93.8683 82.4544 95.1341 81.6321L91.6807 73.4187L79.3374 78.6104Z" fill="#5A5773"/>
<path d="M59.8892 101.294L72.2235 96.1045L67.0336 83.7702L54.6993 88.9601L59.8892 101.294Z" fill="#5A5773"/>
<path d="M30.0286 99.3714L34.7653 110.63C35.0919 110.91 35.4186 111.213 35.7336 111.487L47.552 106.511L42.3603 94.1797L30.0286 99.3714Z" fill="#5A5773"/>
<path d="M27.9111 100.264L30.0286 99.3712L24.837 87.0396L22.0544 88.2062C23.0869 89.6646 24.5161 90.9595 25.4844 92.4762C26.9603 94.7804 27.3453 97.5629 27.9111 100.264Z" fill="#5A5773"/>
<path d="M72.2212 96.1336L73.5337 99.2602C77.5164 97.1256 81.3657 94.7509 85.0604 92.1494L84.5529 90.9419L72.2212 96.1336Z" fill="#5A5773"/>
</g>
<defs>
<linearGradient id="paint0_linear" x1="-366280" y1="17093.2" x2="-400389" y2="17093.2" gradientUnits="userSpaceOnUse">
<stop stop-color="#808080" stop-opacity="0.25"/>
<stop offset="0.54" stop-color="#808080" stop-opacity="0.12"/>
<stop offset="1" stop-color="#808080" stop-opacity="0.1"/>
</linearGradient>
<clipPath id="clip0">
<rect width="195.23" height="147" fill="white"/>
</clipPath>
</defs>
</svg>
