<svg width="196" height="147" viewBox="0 0 196 147" fill="none" xmlns="http://www.w3.org/2000/svg">
<g clip-path="url(#clip0)">
<path d="M8.40953 0H186.82C189.05 0 191.189 0.886002 192.766 2.46309C194.344 4.04019 195.23 6.17918 195.23 8.40953V128.858H0V8.40953C0 6.17918 0.886002 4.04019 2.46309 2.46309C4.04019 0.886002 6.17918 0 8.40953 0V0Z" fill="black"/>
<path d="M0 122.568H195.23V140.025C195.23 141.875 194.495 143.649 193.186 144.957C191.878 146.265 190.104 147 188.254 147H6.97547C5.12546 147 3.35123 146.265 2.04307 144.957C0.734915 143.649 5.99978e-07 141.875 0 140.025L0 122.568Z" fill="black"/>
<path d="M30.6413 128.863C32.233 134.747 37.685 138.391 37.685 138.391C37.685 138.391 40.5563 132.495 38.9646 126.611C37.3729 120.727 31.9209 117.083 31.9209 117.083C31.9209 117.083 29.0496 122.979 30.6413 128.863Z" fill="#31B057"/>
<path d="M30.6413 128.863C32.233 134.747 37.685 138.391 37.685 138.391C37.685 138.391 40.5563 132.495 38.9646 126.611C37.3729 120.727 31.9209 117.083 31.9209 117.083C31.9209 117.083 29.0496 122.979 30.6413 128.863Z" fill="url(#paint0_linear)"/>
<path d="M32.9803 127.598C37.348 131.85 37.8815 138.386 37.8815 138.386C37.8815 138.386 31.3336 138.028 26.9659 133.777C22.5982 129.525 22.0647 122.989 22.0647 122.989C22.0647 122.989 28.6126 123.347 32.9803 127.598Z" fill="#31B057"/>
<path d="M175.566 143.987H21.7664V144.462H175.566V143.987Z" fill="white"/>
<path d="M39.8407 144.224H33.6697V138.053H39.8407V144.224ZM34.1444 143.749H39.366V138.528H34.1444V143.749Z" fill="white"/>
<path d="M52.9768 30.4951H0.678711V82.7933H52.9768V30.4951Z" fill="#3A6B57"/>
<path d="M52.9767 43.5064V44.7067C52.1797 44.1787 51.5363 43.4494 51.1116 42.5928C50.4154 41.1687 50.4374 39.5273 50.4595 37.9395C50.4847 36.0523 50.5099 34.2723 49.3127 33.1129C47.9958 31.8401 45.8881 32.0197 43.8498 32.193C43.6103 32.2119 43.3709 32.2339 43.1346 32.2528C41.0899 32.4072 38.8121 31.8905 37.7063 30.4949H39.0862C40.0975 31.1754 41.6444 31.4148 43.0653 31.3077C43.2953 31.2919 43.5316 31.2699 43.7679 31.251C45.9133 31.0683 48.3455 30.8603 49.968 32.4324C51.4613 33.8753 51.433 35.9484 51.4046 37.9521C51.3826 39.4297 51.3637 40.9545 51.9623 42.1769C52.2106 42.6819 52.5552 43.1335 52.9767 43.5064Z" fill="#31B057"/>
<path d="M52.9768 51.8082V53.2133C52.7474 52.9134 52.49 52.636 52.2081 52.3847C50.5825 50.9513 48.248 50.6362 45.9922 50.3275C45.6992 50.2896 45.4125 50.2487 45.1258 50.2077C41.4681 49.6816 39.1998 48.4246 38.1948 46.3736C37.4985 44.9496 37.5205 43.3082 37.5426 41.7203C37.5678 39.8332 37.593 38.0531 36.3958 36.8938C35.0789 35.621 32.9712 35.8005 30.9329 35.9738C30.6934 35.9927 30.454 36.0148 30.2177 36.0337C27.5902 36.2321 24.5752 35.3217 24.1624 32.8611C24.0207 32.0168 24.2318 31.2418 24.5437 30.4951H25.577C25.2305 31.2449 24.9721 31.9695 25.095 32.7036C25.4069 34.5813 27.9336 35.2555 30.1484 35.0885C30.3784 35.0728 30.6147 35.0507 30.851 35.0318C32.9964 34.8491 35.4286 34.6412 37.0511 36.2132C38.5444 37.6562 38.5161 39.7292 38.4877 41.7329C38.4657 43.2105 38.4468 44.7353 39.0454 45.9577C39.9023 47.7094 41.9344 48.7932 45.2613 49.272C45.5448 49.313 45.8315 49.354 46.1182 49.3918C48.5126 49.7163 50.992 50.0534 52.8351 51.6759C52.8823 51.7168 52.9296 51.7609 52.9768 51.8082Z" fill="#31B057"/>
<path d="M52.9768 75.4933V77.434C51.8395 76.2242 50.888 74.5639 50.1603 72.4878C50.0059 72.0467 49.8578 71.5962 49.7098 71.1456C48.8938 68.6788 48.0494 66.1301 46.0394 64.5013C43.8908 62.7622 40.8128 62.3778 37.8356 62.0061C37.4543 61.9588 37.0731 61.9116 36.6951 61.8612C31.8685 61.2216 28.8787 59.6999 27.5524 57.211C26.6324 55.4814 26.6608 53.4903 26.6891 51.5654C26.7238 49.2781 26.7584 47.1169 25.1769 45.7117C23.441 44.168 20.6591 44.3854 17.9717 44.5965C17.6535 44.6217 17.3385 44.6469 17.0297 44.6689C13.561 44.9084 9.58196 43.8057 9.04007 40.8222C8.77227 39.3604 9.45593 38.0655 10.1144 36.8116C10.4925 36.0933 10.8516 35.4096 11.0343 34.7071C11.4187 33.261 10.943 31.6322 9.88754 30.4949H11.4313C11.8768 31.1419 12.1799 31.876 12.3205 32.6489C12.4612 33.4217 12.4362 34.2156 12.2473 34.978C12.0299 35.8003 11.6266 36.569 11.236 37.3125C10.6342 38.453 10.0703 39.5305 10.2688 40.6332C10.6846 42.9078 14.0147 43.7269 16.9352 43.5253C17.2408 43.5032 17.5527 43.478 17.8646 43.456C20.6937 43.2323 23.9009 42.9834 26.0433 44.8895C28.0123 46.638 27.9745 49.1521 27.9367 51.5811C27.9115 53.3737 27.8831 55.2231 28.6708 56.707C29.8018 58.8272 32.486 60.1441 36.8747 60.727C37.2464 60.7774 37.6245 60.8246 38.0025 60.8719C41.1656 61.2657 44.4327 61.6721 46.8617 63.6412C49.1395 65.4874 50.0374 68.1936 50.9006 70.8117C51.0487 71.2591 51.1968 71.7001 51.348 72.1381C51.7486 73.3202 52.2958 74.4474 52.9768 75.4933Z" fill="#31B057"/>
<path d="M0.678711 51.6126C2.11534 53.3517 5.16186 53.9944 7.89334 53.8054C8.20208 53.7833 8.51713 53.7581 8.83533 53.7329C11.5227 53.5218 14.3046 53.3044 16.0405 54.8482C17.6221 56.2533 17.5874 58.4145 17.5527 60.7018C17.5244 62.6267 17.496 64.6178 18.416 66.3475C19.7423 68.8364 22.7321 70.358 27.5587 70.9976C27.9368 71.048 28.318 71.0953 28.6992 71.1425C31.6764 71.5143 34.7544 71.8986 36.9031 73.6377C38.9131 75.2665 39.7574 77.8153 40.5734 80.2821C40.7215 80.7326 40.8695 81.1831 41.0239 81.6242C41.1657 82.0306 41.3169 82.4181 41.4744 82.793H42.8228C42.5865 82.2795 42.3849 81.766 42.2116 81.2745C42.0604 80.8366 41.9123 80.3955 41.7643 79.9481C40.901 77.3301 40.0031 74.6238 37.7253 72.7776C35.2963 70.8086 32.0293 70.4022 28.8662 70.0083C28.4881 69.9611 28.11 69.9138 27.7383 69.8634C23.3496 69.2806 20.6654 67.9637 19.5344 65.8434C18.7468 64.3595 18.7751 62.5102 18.8003 60.7176C18.8382 58.2885 18.876 55.7744 16.9069 54.0259C14.7646 52.1199 11.5574 52.3688 8.72822 52.5924C8.41632 52.6145 8.10443 52.6397 7.79883 52.6618C4.87832 52.8634 1.54825 52.0443 1.13239 49.7696C0.933915 48.6669 1.49785 47.5895 2.09959 46.449C2.49025 45.7055 2.89351 44.9367 3.1109 44.1145C3.70319 41.865 2.70448 39.373 0.678718 38.012V39.5557C1.78454 40.6962 2.28862 42.3628 1.89796 43.8435C1.71523 44.5461 1.35607 45.2297 0.978015 45.9481C0.8772 46.1402 0.776381 46.3293 0.678718 46.5246L0.678711 51.6126Z" fill="#31B057"/>
<path d="M23.8128 82.7931H22.5053C22.436 82.5883 22.3698 82.3804 22.3005 82.1724C21.4845 79.7056 20.6402 77.1569 18.6302 75.5281C16.4816 73.789 13.4035 73.4046 10.4263 73.0329C10.0451 72.9856 9.66391 72.9384 9.28585 72.888C5.02638 72.324 2.1941 71.0701 0.678711 69.0727V65.938C0.776103 66.5638 0.972861 67.17 1.26154 67.7338C2.39258 69.854 5.0768 71.1709 9.46543 71.7538C9.83719 71.8042 10.2153 71.8514 10.5933 71.8987C13.7564 72.2925 17.0235 72.6989 19.4525 74.668C21.7303 76.5142 22.6282 79.2204 23.4914 81.8385C23.5985 82.1599 23.7025 82.4781 23.8128 82.7931Z" fill="#31B057"/>
<path d="M123.863 30.4951H71.5647V82.7933H123.863V30.4951Z" fill="#3A6B57"/>
<path d="M96.7686 34.2757C96.7684 37.2222 95.9886 40.1161 94.5084 42.6637C93.0281 45.2113 90.9001 47.3219 88.3405 48.7813C85.7808 50.2406 82.8806 50.9967 79.9342 50.9728C76.9879 50.9488 74.1003 50.1458 71.5647 48.6451V30.4951H96.337C96.6254 31.7346 96.7702 33.0031 96.7686 34.2757Z" fill="#31B057"/>
<path d="M78.9788 41.0288L78.9634 41.0323L79.0494 41.1546C79.1532 41.3313 79.2711 41.4992 79.402 41.6568L81.9219 45.2452C82.0023 45.3598 82.1144 45.4483 82.2445 45.5C82.3745 45.5518 82.5168 45.5644 82.6539 45.5364L84.9093 45.0757C85.0551 45.0459 85.1881 44.9715 85.2899 44.8629C85.3917 44.7543 85.4572 44.6168 85.4775 44.4693L86.101 39.9316C86.1255 39.8032 86.1433 39.6737 86.1544 39.5435L86.1756 39.3894L86.1643 39.392C86.1907 38.804 86.081 38.2178 85.8438 37.6792C85.6065 37.1406 85.248 36.6641 84.7963 36.2867C84.3445 35.9094 83.8118 35.6415 83.2395 35.5039C82.6672 35.3663 82.0709 35.3628 81.4971 35.4935C80.9232 35.6242 80.3872 35.8857 79.931 36.2576C79.4748 36.6295 79.1107 37.1017 78.8669 37.6374C78.6232 38.1731 78.5065 38.7579 78.5259 39.3462C78.5453 39.9345 78.7003 40.5103 78.9788 41.0288L78.9788 41.0288Z" fill="white"/>
<path d="M85.1368 45.2869C85.0992 45.3008 85.0607 45.3119 85.0214 45.3199L82.6639 45.8014C82.5142 45.832 82.3587 45.8183 82.2167 45.7618C82.0747 45.7053 81.9523 45.6086 81.8645 45.4835L79.2305 41.7327C79.0932 41.5672 78.9694 41.3908 78.8605 41.2054L78.7654 41.0339C78.4757 40.4806 78.3185 39.8675 78.3064 39.2431C78.2942 38.6187 78.4274 37.9999 78.6953 37.4358C78.9633 36.8716 79.3587 36.3775 79.8504 35.9924C80.342 35.6072 80.9165 35.3417 81.5284 35.2166L81.5418 35.2824C80.9367 35.4064 80.3689 35.6701 79.8838 36.0524C79.3986 36.4348 79.0096 36.9252 78.7476 37.4846C78.4857 38.044 78.3581 38.6569 78.375 39.2744C78.3919 39.8919 78.553 40.4968 78.8452 41.041L78.9169 41.1691C79.025 41.353 79.1477 41.5278 79.2839 41.6919L81.9195 45.4449C81.9998 45.5593 82.1117 45.6478 82.2416 45.6994C82.3714 45.751 82.5135 45.7636 82.6504 45.7356L85.0079 45.2541C85.1535 45.2242 85.2862 45.1499 85.3878 45.0415C85.4894 44.9331 85.5549 44.7958 85.5753 44.6486L85.6418 44.6577C85.6224 44.7985 85.5651 44.9313 85.4762 45.042C85.3872 45.1528 85.27 45.2375 85.1368 45.2869Z" fill="#D0CDE1"/>
<path d="M83.9056 40.2306L83.9221 44.4377L84.009 44.4374L83.9925 40.2303L83.9056 40.2306Z" fill="#D0CDE1"/>
<path d="M81.5632 40.7089L81.4832 40.7427L83.1172 44.6195L83.1973 44.5858L81.5632 40.7089Z" fill="#D0CDE1"/>
<path d="M85.6467 47.241L82.6258 47.8581C82.6033 47.8626 82.58 47.858 82.5609 47.8453C82.5417 47.8325 82.5284 47.8128 82.5238 47.7903C82.5193 47.7678 82.5237 47.7444 82.5363 47.7253C82.5489 47.7061 82.5686 47.6927 82.5911 47.6879L85.6119 47.0708C85.6231 47.0685 85.6347 47.0684 85.6459 47.0705C85.6572 47.0726 85.6679 47.077 85.6775 47.0832C85.687 47.0895 85.6953 47.0976 85.7017 47.1071C85.7081 47.1166 85.7126 47.1272 85.7149 47.1385C85.7172 47.1497 85.7172 47.1612 85.715 47.1725C85.7128 47.1837 85.7084 47.1944 85.7021 47.2039C85.6958 47.2135 85.6876 47.2217 85.6781 47.228C85.6686 47.2344 85.6579 47.2388 85.6467 47.241Z" fill="white"/>
<path d="M85.4948 46.6073L82.474 47.2244C82.4628 47.2267 82.4512 47.2269 82.44 47.2247C82.4287 47.2226 82.418 47.2183 82.4084 47.212C82.3989 47.2057 82.3906 47.1976 82.3842 47.1881C82.3778 47.1786 82.3733 47.168 82.371 47.1568C82.3687 47.1455 82.3687 47.134 82.3709 47.1228C82.3731 47.1115 82.3774 47.1008 82.3838 47.0913C82.3901 47.0818 82.3983 47.0736 82.4078 47.0672C82.4173 47.0608 82.428 47.0564 82.4392 47.0542L85.4601 46.4371C85.4713 46.4347 85.4828 46.4346 85.4941 46.4368C85.5053 46.4389 85.5161 46.4432 85.5256 46.4495C85.5352 46.4558 85.5434 46.4639 85.5499 46.4734C85.5563 46.4828 85.5608 46.4935 85.5631 46.5047C85.5653 46.5159 85.5654 46.5275 85.5632 46.5387C85.561 46.55 85.5566 46.5607 85.5503 46.5702C85.5439 46.5797 85.5358 46.5879 85.5263 46.5943C85.5168 46.6006 85.5061 46.6051 85.4948 46.6073Z" fill="white"/>
<path d="M85.3432 45.9732L82.3224 46.5903C82.2999 46.5948 82.2765 46.5901 82.2574 46.5774C82.2383 46.5647 82.225 46.545 82.2204 46.5225C82.2158 46.5 82.2203 46.4766 82.2329 46.4574C82.2455 46.4383 82.2651 46.4248 82.2876 46.4201L85.3084 45.803C85.331 45.7986 85.3543 45.8032 85.3734 45.8159C85.3925 45.8286 85.4058 45.8484 85.4104 45.8708C85.415 45.8933 85.4105 45.9167 85.3979 45.9359C85.3853 45.9551 85.3657 45.9685 85.3432 45.9732L85.3432 45.9732Z" fill="white"/>
<path d="M84.2603 48.1566C84.8595 48.0342 85.277 47.601 85.1929 47.1891L83.023 47.6323C83.1071 48.0443 83.6611 48.279 84.2603 48.1566Z" fill="white"/>
<path d="M82.3718 39.9112C82.2429 39.9376 82.1064 39.8786 82.0271 39.8345C82.0011 39.8201 81.9754 39.8047 81.9495 39.7892C81.8554 39.7329 81.7665 39.6798 81.6672 39.6717C81.448 39.6538 81.273 39.8572 81.1307 40.0585L81.0598 40.0084C81.2161 39.787 81.4114 39.5637 81.6743 39.5851C81.7938 39.5948 81.8956 39.6558 81.9941 39.7147C82.0191 39.7297 82.0442 39.7446 82.0693 39.7586C82.1517 39.8045 82.3067 39.8708 82.4203 39.8001C82.4665 39.7658 82.5052 39.7225 82.534 39.6727C82.5569 39.6374 82.5826 39.6038 82.6107 39.5724C82.6691 39.5121 82.7439 39.4704 82.8259 39.4525C82.9079 39.4347 82.9933 39.4415 83.0715 39.472C83.0998 39.4841 83.1274 39.4977 83.1542 39.5128C83.2063 39.541 83.2555 39.5676 83.3058 39.5652C83.3802 39.5618 83.4365 39.4977 83.4961 39.4299C83.5576 39.3599 83.6212 39.2876 83.7152 39.2647C83.7183 39.264 83.7214 39.2633 83.7245 39.2627C83.8941 39.228 84.0338 39.378 84.1247 39.4949L84.0561 39.5482C83.9326 39.3893 83.8302 39.3255 83.7357 39.3491C83.6683 39.3655 83.6164 39.4246 83.5614 39.4872C83.4924 39.5657 83.4211 39.6469 83.3098 39.652C83.2354 39.6555 83.1731 39.6218 83.1128 39.5892C83.0888 39.5757 83.0641 39.5634 83.0388 39.5525C82.9768 39.5289 82.9093 39.5238 82.8445 39.5379C82.7797 39.5521 82.7205 39.5847 82.6739 39.632C82.6489 39.6601 82.6261 39.6902 82.6057 39.7218C82.5704 39.7818 82.5229 39.8336 82.4662 39.8739C82.4372 39.8919 82.4053 39.9045 82.3718 39.9112Z" fill="#D0CDE1"/>
<path d="M104.314 62.6036L104.299 62.5996L104.318 62.7478C104.328 62.9525 104.355 63.156 104.398 63.3563L104.967 67.7039C104.985 67.8427 105.044 67.9731 105.135 68.0792C105.226 68.1853 105.347 68.2625 105.481 68.3012L107.693 68.9384C107.836 68.9796 107.988 68.9754 108.129 68.9263C108.269 68.8772 108.391 68.7857 108.478 68.6645L111.133 64.9327C111.215 64.8303 111.29 64.7237 111.361 64.6135L111.451 64.4868L111.44 64.4838C111.736 63.9751 111.91 63.4049 111.949 62.8176C111.989 62.2304 111.892 61.6419 111.667 61.0982C111.441 60.5545 111.093 60.0702 110.65 59.683C110.207 59.2958 109.68 59.0163 109.111 58.8661C108.542 58.7159 107.946 58.6992 107.369 58.8173C106.793 58.9353 106.251 59.185 105.787 59.5467C105.322 59.9084 104.948 60.3725 104.692 60.9028C104.437 61.433 104.307 62.0151 104.314 62.6036L104.314 62.6036Z" fill="#31B057"/>
<path d="M107.797 69.2309C107.757 69.2258 107.718 69.2177 107.679 69.2066L105.367 68.5406C105.22 68.4983 105.089 68.4141 104.989 68.2982C104.889 68.1823 104.826 68.0399 104.806 67.8883L104.211 63.3439C104.166 63.1336 104.138 62.92 104.127 62.7052L104.122 62.5091C104.122 61.8845 104.267 61.2685 104.546 60.7095C104.824 60.1506 105.229 59.6641 105.728 59.2884C106.227 58.9127 106.806 58.6581 107.421 58.5448C108.035 58.4314 108.667 58.4624 109.267 58.6352L109.248 58.6997C108.655 58.5291 108.029 58.4995 107.422 58.6135C106.815 58.7274 106.243 58.9816 105.752 59.3559C105.26 59.7302 104.863 60.2141 104.592 60.7691C104.321 61.3241 104.183 61.9347 104.19 62.5524L104.194 62.6992C104.204 62.9121 104.232 63.1239 104.277 63.3325L104.873 67.8796C104.891 68.0182 104.949 68.1485 105.04 68.2544C105.131 68.3604 105.251 68.4374 105.385 68.4761L107.698 69.1421C107.84 69.1831 107.993 69.1788 108.133 69.1298C108.273 69.0808 108.395 68.9896 108.481 68.8686L108.536 68.9075C108.453 69.0231 108.341 69.1143 108.211 69.1712C108.081 69.2282 107.938 69.2488 107.797 69.2309Z" fill="#D0CDE1"/>
<path d="M109.049 64.1798L107.114 67.9153L107.191 67.9552L109.126 64.2197L109.049 64.1798Z" fill="#D0CDE1"/>
<path d="M106.752 63.5179L106.666 63.5107L106.316 67.7034L106.403 67.7106L106.752 63.5179Z" fill="#D0CDE1"/>
<path d="M107.343 71.1987L104.38 70.3453C104.358 70.3388 104.339 70.3239 104.328 70.3037C104.317 70.2836 104.315 70.26 104.321 70.2379C104.327 70.2159 104.342 70.1972 104.362 70.1861C104.382 70.1749 104.406 70.1721 104.428 70.1783L107.391 71.0318C107.402 71.0349 107.412 71.0401 107.421 71.0472C107.43 71.0543 107.438 71.0631 107.443 71.0731C107.449 71.0831 107.452 71.0941 107.454 71.1055C107.455 71.1169 107.454 71.1284 107.451 71.1394C107.448 71.1504 107.442 71.1607 107.435 71.1696C107.428 71.1785 107.419 71.186 107.409 71.1915C107.399 71.197 107.388 71.2005 107.377 71.2017C107.365 71.2029 107.354 71.2019 107.343 71.1987Z" fill="#31B057"/>
<path d="M107.502 70.5669L104.539 69.7135C104.528 69.7104 104.518 69.7051 104.509 69.698C104.5 69.6909 104.492 69.6821 104.487 69.6721C104.481 69.6621 104.478 69.6511 104.476 69.6397C104.475 69.6283 104.476 69.6168 104.479 69.6058C104.482 69.5948 104.488 69.5846 104.495 69.5756C104.502 69.5667 104.511 69.5592 104.521 69.5537C104.531 69.5482 104.542 69.5448 104.553 69.5435C104.565 69.5423 104.576 69.5433 104.587 69.5465L107.55 70.4C107.561 70.4031 107.571 70.4083 107.58 70.4154C107.589 70.4225 107.597 70.4313 107.602 70.4413C107.608 70.4513 107.611 70.4623 107.613 70.4737C107.614 70.4851 107.613 70.4966 107.61 70.5076C107.607 70.5186 107.601 70.5289 107.594 70.5378C107.587 70.5468 107.578 70.5542 107.568 70.5597C107.558 70.5652 107.547 70.5687 107.536 70.5699C107.524 70.5711 107.513 70.5701 107.502 70.5669Z" fill="#31B057"/>
<path d="M107.661 69.9348L104.699 69.0813C104.677 69.0749 104.658 69.0599 104.647 69.0398C104.636 69.0197 104.633 68.996 104.64 68.974C104.646 68.9519 104.661 68.9333 104.681 68.9221C104.701 68.911 104.725 68.9082 104.747 68.9144L107.709 69.7679C107.731 69.7743 107.75 69.7893 107.761 69.8094C107.772 69.8295 107.775 69.8532 107.768 69.8752C107.762 69.8973 107.747 69.9159 107.727 69.9271C107.707 69.9382 107.683 69.941 107.661 69.9348L107.661 69.9348Z" fill="#31B057"/>
<path d="M105.69 71.3672C106.277 71.5365 106.848 71.3462 106.964 70.9422L104.836 70.3292C104.72 70.7332 105.102 71.198 105.69 71.3672Z" fill="#31B057"/>
<path d="M107.838 63.1861C107.712 63.1498 107.618 63.0342 107.568 62.9584C107.552 62.9336 107.536 62.9079 107.521 62.8823C107.463 62.7888 107.409 62.7005 107.325 62.6473C107.139 62.5298 106.89 62.6289 106.67 62.7414L106.631 62.6641C106.872 62.5404 107.148 62.433 107.371 62.5738C107.473 62.6378 107.535 62.739 107.595 62.8369C107.61 62.8618 107.625 62.8866 107.641 62.9107C107.693 62.9895 107.799 63.1201 107.933 63.1101C107.99 63.1012 108.044 63.0807 108.093 63.05C108.129 63.0293 108.168 63.0114 108.207 62.9967C108.287 62.9703 108.372 62.968 108.453 62.9902C108.534 63.0123 108.607 63.0579 108.662 63.1212C108.681 63.1451 108.699 63.1699 108.716 63.1957C108.749 63.2449 108.781 63.2912 108.826 63.3125C108.894 63.344 108.973 63.3132 109.058 63.2808C109.145 63.2473 109.234 63.2126 109.328 63.236C109.331 63.2367 109.334 63.2376 109.337 63.2384C109.504 63.2863 109.558 63.484 109.585 63.6297L109.499 63.6452C109.463 63.4471 109.402 63.3431 109.307 63.3203C109.24 63.3035 109.167 63.3318 109.089 63.3618C108.991 63.3994 108.891 63.4382 108.79 63.3912C108.722 63.3598 108.682 63.3011 108.644 63.2443C108.629 63.2211 108.613 63.1988 108.596 63.1774C108.552 63.1278 108.494 63.092 108.43 63.0745C108.366 63.0569 108.299 63.0584 108.235 63.0788C108.2 63.0921 108.166 63.1081 108.133 63.1267C108.074 63.1635 108.008 63.1873 107.939 63.1968C107.905 63.1993 107.871 63.1957 107.838 63.1861Z" fill="#D0CDE1"/>
<path d="M110.316 54.7537C115.884 54.7537 120.397 50.24 120.397 44.6721C120.397 39.1042 115.884 34.5906 110.316 34.5906C104.748 34.5906 100.234 39.1042 100.234 44.6721C100.234 50.24 104.748 54.7537 110.316 54.7537Z" fill="#31B057"/>
<path d="M87.6321 73.3416C91.634 73.3416 94.8782 70.0974 94.8782 66.0955C94.8782 62.0936 91.634 58.8494 87.6321 58.8494C83.6302 58.8494 80.386 62.0936 80.386 66.0955C80.386 70.0974 83.6302 73.3416 87.6321 73.3416Z" fill="#31B057"/>
<path d="M123.863 74.2239V82.7933H113.494C113.054 81.4148 113.037 79.9362 113.444 78.5477C113.852 77.1592 114.666 75.9246 115.781 75.0027C116.896 74.0808 118.262 73.514 119.703 73.3752C121.143 73.2364 122.592 73.532 123.863 74.2239H123.863Z" fill="#31B057"/>
<path d="M112.89 69.7806C113.934 69.7806 114.781 68.9343 114.781 67.8903C114.781 66.8463 113.934 66 112.89 66C111.846 66 111 66.8463 111 67.8903C111 68.9343 111.846 69.7806 112.89 69.7806Z" fill="#31B057"/>
<path d="M112.89 69.7806C113.934 69.7806 114.781 68.9343 114.781 67.8903C114.781 66.8463 113.934 66 112.89 66C111.846 66 111 66.8463 111 67.8903C111 68.9343 111.846 69.7806 112.89 69.7806Z" fill="url(#paint1_linear)"/>
<path d="M195.064 30.4951H142.766V82.7933H195.064V30.4951Z" fill="#3A6B57"/>
<path d="M177.597 40.6091L177.576 40.604L177.607 40.8108C177.627 41.0967 177.67 41.3806 177.736 41.6596L178.657 47.7251C178.687 47.9187 178.772 48.0995 178.903 48.2453C179.033 48.3911 179.204 48.4956 179.393 48.5459L182.506 49.3739C182.707 49.4275 182.92 49.4172 183.115 49.3445C183.31 49.2719 183.478 49.1404 183.595 48.9683L187.204 43.672C187.314 43.5264 187.417 43.3752 187.512 43.219L187.635 43.0392L187.619 43.0354C188.018 42.3152 188.246 41.5126 188.285 40.6899C188.323 39.8673 188.171 39.047 187.84 38.2928C187.509 37.5387 187.008 36.8711 186.377 36.3422C185.746 35.8133 185.001 35.4373 184.201 35.2435C183.4 35.0498 182.566 35.0435 181.763 35.2251C180.96 35.4068 180.209 35.7714 179.57 36.2908C178.931 36.8101 178.42 37.47 178.078 38.219C177.736 38.9681 177.571 39.786 177.597 40.6091L177.597 40.6091Z" fill="#31B057"/>
<path d="M182.659 49.7803C182.603 49.7744 182.548 49.7641 182.494 49.7497L179.24 48.8842C179.033 48.8293 178.847 48.7152 178.705 48.556C178.562 48.3967 178.469 48.1993 178.437 47.9879L177.474 41.6478C177.405 41.3549 177.36 41.0569 177.339 40.7567L177.326 40.4826C177.308 39.6089 177.493 38.743 177.867 37.9531C178.241 37.1633 178.793 36.4711 179.48 35.9313C180.168 35.3915 180.971 35.0188 181.827 34.8426C182.683 34.6664 183.568 34.6916 184.412 34.9162L184.388 35.007C183.553 34.7853 182.677 34.7619 181.831 34.9387C180.985 35.1154 180.192 35.4874 179.515 36.025C178.839 36.5627 178.297 37.251 177.934 38.0351C177.57 38.8192 177.395 39.6774 177.422 40.5412L177.432 40.7464C177.453 41.0441 177.498 41.3395 177.566 41.63L178.53 47.9738C178.559 48.1671 178.644 48.3476 178.775 48.4933C178.905 48.6389 179.075 48.7432 179.264 48.7934L182.518 49.6589C182.719 49.7122 182.931 49.7018 183.126 49.6293C183.321 49.5567 183.489 49.4256 183.606 49.2539L183.683 49.3067C183.571 49.4709 183.417 49.6016 183.236 49.685C183.056 49.7684 182.856 49.8013 182.659 49.7803Z" fill="#D0CDE1"/>
<path d="M184.267 42.6786L181.666 47.9595L181.775 48.0132L184.376 42.7322L184.267 42.6786Z" fill="#D0CDE1"/>
<path d="M181.034 41.8186L180.913 41.811L180.545 47.686L180.666 47.6936L181.034 41.8186Z" fill="#D0CDE1"/>
<path d="M182.08 52.5461L177.911 51.437C177.88 51.4286 177.854 51.4083 177.838 51.3804C177.822 51.3526 177.817 51.3196 177.825 51.2885C177.834 51.2575 177.854 51.231 177.882 51.2148C177.909 51.1986 177.942 51.1941 177.973 51.2022L182.142 52.3112C182.158 52.3152 182.172 52.3223 182.185 52.3319C182.198 52.3416 182.209 52.3537 182.217 52.3675C182.225 52.3814 182.23 52.3967 182.232 52.4125C182.234 52.4284 182.233 52.4446 182.229 52.46C182.225 52.4755 182.218 52.49 182.208 52.5027C182.199 52.5155 182.186 52.5261 182.172 52.5341C182.159 52.5421 182.143 52.5473 182.127 52.5493C182.112 52.5514 182.095 52.5503 182.08 52.5461Z" fill="#31B057"/>
<path d="M182.285 51.6575L178.116 50.5485C178.1 50.5445 178.086 50.5374 178.073 50.5277C178.06 50.5181 178.05 50.506 178.042 50.4921C178.033 50.4783 178.028 50.463 178.026 50.4471C178.024 50.4313 178.025 50.4151 178.029 50.3996C178.033 50.3842 178.04 50.3696 178.05 50.3569C178.06 50.3442 178.072 50.3336 178.086 50.3256C178.1 50.3176 178.115 50.3124 178.131 50.3103C178.147 50.3083 178.163 50.3094 178.178 50.3136L182.347 51.4226C182.363 51.4267 182.377 51.4337 182.39 51.4434C182.403 51.4531 182.414 51.4652 182.422 51.479C182.43 51.4928 182.435 51.5081 182.437 51.524C182.439 51.5399 182.438 51.556 182.434 51.5715C182.43 51.587 182.423 51.6015 182.413 51.6142C182.403 51.6269 182.391 51.6376 182.377 51.6456C182.364 51.6536 182.348 51.6587 182.332 51.6608C182.316 51.6628 182.3 51.6617 182.285 51.6575Z" fill="#31B057"/>
<path d="M182.49 50.7689L178.321 49.6599C178.29 49.6515 178.264 49.6312 178.248 49.6033C178.232 49.5755 178.227 49.5425 178.236 49.5114C178.244 49.4804 178.264 49.4539 178.292 49.4377C178.32 49.4216 178.353 49.417 178.384 49.4251L182.553 50.5341C182.583 50.5425 182.61 50.5629 182.626 50.5907C182.642 50.6185 182.646 50.6515 182.638 50.6826C182.63 50.7136 182.61 50.7401 182.582 50.7563C182.554 50.7725 182.521 50.777 182.49 50.7689L182.49 50.7689Z" fill="#31B057"/>
<path d="M179.773 52.8293C180.6 53.0492 181.393 52.7667 181.544 52.1982L178.549 51.4016C178.398 51.9701 178.946 52.6093 179.773 52.8293Z" fill="#31B057"/>
<path d="M182.544 41.3235C182.366 41.2762 182.232 41.1172 182.16 41.0126C182.137 40.9783 182.114 40.9429 182.091 40.9075C182.008 40.7783 181.93 40.6564 181.811 40.5844C181.547 40.4253 181.201 40.5711 180.898 40.7347L180.84 40.6278C181.174 40.4478 181.557 40.2896 181.873 40.4803C182.017 40.5669 182.107 40.7067 182.193 40.8418C182.215 40.8763 182.237 40.9106 182.26 40.9438C182.335 41.0526 182.488 41.2322 182.674 41.2145C182.753 41.2003 182.829 41.1701 182.896 41.1257C182.947 41.0957 183 41.0697 183.055 41.0479C183.165 41.0087 183.285 41.003 183.399 41.0317C183.513 41.0604 183.615 41.1221 183.694 41.2091C183.722 41.2419 183.748 41.2761 183.772 41.3118C183.82 41.3795 183.865 41.4435 183.93 41.4719C184.025 41.514 184.136 41.4687 184.253 41.4209C184.373 41.3716 184.498 41.3205 184.63 41.3505C184.634 41.3515 184.639 41.3526 184.643 41.3537C184.877 41.416 184.958 41.6909 185 41.894L184.88 41.918C184.825 41.642 184.736 41.4982 184.603 41.469C184.508 41.4475 184.406 41.4892 184.299 41.5334C184.163 41.5888 184.023 41.646 183.881 41.5831C183.785 41.5411 183.728 41.4601 183.673 41.3818C183.651 41.3498 183.628 41.319 183.603 41.2896C183.54 41.2214 183.459 41.173 183.369 41.1503C183.279 41.1276 183.184 41.1316 183.097 41.1619C183.048 41.1815 183 41.2049 182.955 41.2318C182.874 41.285 182.782 41.3203 182.686 41.3354C182.638 41.3399 182.59 41.3359 182.544 41.3235Z" fill="#D0CDE1"/>
<path d="M168.285 30.4951V51.9185H142.766V53.1787H169.545V30.4951H168.285Z" fill="#31B057"/>
<path d="M192.9 82.7932L195.064 79.7151V77.5255L191.359 82.7932H192.9ZM184.11 60.2419L172.513 76.7348L181.129 82.7932H183.319L174.268 76.4292L184.415 61.9968L195.064 69.4855V67.9449L184.11 60.2419Z" fill="#31B057"/>
<path d="M164.819 58.1533L158.137 64.8355L164.819 71.5177L171.502 64.8355L164.819 58.1533ZM159.917 64.8355L164.819 59.9334L169.722 64.8355L164.819 69.7377L159.917 64.8355Z" fill="#31B057"/>
<path d="M26.3118 35.2831C28.9335 35.2831 31.0587 33.1578 31.0587 30.5362C31.0587 27.9146 28.9335 25.7893 26.3118 25.7893C23.6902 25.7893 21.5649 27.9146 21.5649 30.5362C21.5649 33.1578 23.6902 35.2831 26.3118 35.2831Z" fill="#F2F2F2"/>
<path d="M17.5769 51.8862L17.5508 51.8922L17.6969 52.1002C17.8734 52.4004 18.0739 52.6859 18.2964 52.9539L22.58 59.0539C22.7167 59.2486 22.9073 59.3992 23.1284 59.4871C23.3494 59.575 23.5914 59.5965 23.8244 59.5488L27.6585 58.7656C27.9064 58.715 28.1324 58.5886 28.3054 58.404C28.4785 58.2194 28.5899 57.9856 28.6243 57.7349L29.6843 50.0211C29.7259 49.8029 29.7562 49.5827 29.775 49.3613L29.811 49.0994L29.7919 49.1038C29.8368 48.1042 29.6504 47.1078 29.247 46.1922C28.8436 45.2766 28.2342 44.4665 27.4663 43.825C26.6984 43.1836 25.7927 42.7282 24.8199 42.4943C23.8471 42.2604 22.8334 42.2543 21.8578 42.4766C20.8823 42.6988 19.9712 43.1433 19.1957 43.7755C18.4202 44.4076 17.8011 45.2104 17.3868 46.1211C16.9724 47.0318 16.774 48.0259 16.807 49.0259C16.84 50.0259 17.1035 51.0048 17.5769 51.8862L17.5769 51.8862Z" fill="white"/>
<path d="M28.0447 59.1248C27.9808 59.1485 27.9152 59.1672 27.8485 59.1809L23.8409 59.9995C23.5864 60.0515 23.3222 60.0281 23.0808 59.9321C22.8394 59.8361 22.6313 59.6717 22.482 59.459L18.0044 53.0828C17.771 52.8015 17.5606 52.5018 17.3753 52.1866L17.2137 51.8949C16.7212 50.9544 16.4541 49.9122 16.4334 48.8507C16.4128 47.7892 16.6391 46.7374 17.0946 45.7784C17.5501 44.8194 18.2223 43.9794 19.0581 43.3247C19.8939 42.67 20.8704 42.2185 21.9106 42.006L21.9334 42.1178C20.9047 42.3286 19.9396 42.7768 19.1149 43.4268C18.2902 44.0768 17.6288 44.9105 17.1835 45.8615C16.7382 46.8124 16.5213 47.8543 16.5501 48.9039C16.5789 49.9536 16.8526 50.982 17.3494 51.9071L17.4712 52.1249C17.655 52.4374 17.8636 52.7346 18.0951 53.0136L22.5754 59.3934C22.7119 59.5879 22.9022 59.7382 23.123 59.826C23.3437 59.9138 23.5853 59.9352 23.818 59.8876L27.8256 59.069C28.0731 59.0182 28.2987 58.892 28.4714 58.7076C28.6442 58.5233 28.7555 58.29 28.7901 58.0398L28.9032 58.0553C28.8701 58.2945 28.7728 58.5202 28.6216 58.7086C28.4704 58.8969 28.2711 59.0407 28.0447 59.1248Z" fill="#31B057"/>
<path d="M25.952 50.5293L25.98 57.6812L26.1276 57.6806L26.0996 50.5287L25.952 50.5293Z" fill="#31B057"/>
<path d="M21.97 51.3426L21.834 51.3999L24.6118 57.9903L24.7479 57.933L21.97 51.3426Z" fill="#31B057"/>
<path d="M28.9116 62.4466L23.7763 63.4956C23.7381 63.5032 23.6984 63.4953 23.6659 63.4737C23.6334 63.4521 23.6108 63.4186 23.603 63.3803C23.5952 63.3421 23.6028 63.3024 23.6242 63.2698C23.6456 63.2371 23.6791 63.2143 23.7172 63.2063L28.8525 62.1573C28.8715 62.1533 28.8912 62.1531 28.9103 62.1567C28.9294 62.1603 28.9477 62.1677 28.9639 62.1784C28.9802 62.189 28.9942 62.2028 29.0051 62.2189C29.016 62.235 29.0236 62.2532 29.0275 62.2722C29.0314 62.2913 29.0315 62.3109 29.0278 62.33C29.0241 62.3491 29.0166 62.3673 29.0058 62.3835C28.9951 62.3997 28.9812 62.4137 28.965 62.4245C28.9488 62.4353 28.9307 62.4428 28.9116 62.4466Z" fill="white"/>
<path d="M28.6538 61.3691L23.5185 62.4181C23.4994 62.4221 23.4798 62.4223 23.4607 62.4187C23.4416 62.4151 23.4233 62.4077 23.4071 62.3971C23.3908 62.3864 23.3768 62.3726 23.3659 62.3565C23.355 62.3404 23.3473 62.3223 23.3434 62.3032C23.3395 62.2841 23.3395 62.2645 23.3432 62.2454C23.3469 62.2263 23.3544 62.2081 23.3652 62.1919C23.3759 62.1757 23.3898 62.1618 23.406 62.1509C23.4221 62.1401 23.4403 62.1326 23.4594 62.1288L28.5947 61.0798C28.6137 61.0758 28.6333 61.0756 28.6525 61.0792C28.6716 61.0828 28.6898 61.0902 28.7061 61.1009C28.7223 61.1116 28.7363 61.1253 28.7473 61.1415C28.7582 61.1576 28.7658 61.1757 28.7697 61.1947C28.7736 61.2138 28.7737 61.2335 28.77 61.2526C28.7662 61.2717 28.7588 61.2898 28.748 61.306C28.7372 61.3222 28.7233 61.3362 28.7072 61.347C28.691 61.3578 28.6728 61.3653 28.6538 61.3691Z" fill="white"/>
<path d="M28.396 60.2916L23.2607 61.3406C23.2224 61.3482 23.1827 61.3403 23.1502 61.3187C23.1178 61.2971 23.0951 61.2635 23.0873 61.2253C23.0795 61.1871 23.0872 61.1473 23.1086 61.1147C23.13 61.0821 23.1634 61.0593 23.2016 61.0513L28.3369 60.0023C28.3751 59.9947 28.4148 60.0026 28.4473 60.0242C28.4798 60.0458 28.5024 60.0793 28.5102 60.1176C28.518 60.1558 28.5104 60.1955 28.489 60.2281C28.4676 60.2607 28.4341 60.2836 28.396 60.2916L28.396 60.2916Z" fill="white"/>
<path d="M26.5548 64.003C27.5734 63.7949 28.2832 63.0586 28.1401 62.3583L24.4514 63.1118C24.5944 63.8121 25.5362 64.2111 26.5548 64.003Z" fill="white"/>
<path d="M23.3447 49.9868C23.1256 50.0316 22.8935 49.9314 22.7588 49.8564C22.7146 49.8319 22.6708 49.8056 22.6268 49.7794C22.4668 49.6837 22.3158 49.5933 22.147 49.5796C21.7743 49.5491 21.4767 49.8949 21.235 50.2372L21.1144 50.1521C21.3801 49.7757 21.712 49.396 22.159 49.4324C22.3621 49.449 22.5352 49.5525 22.7026 49.6526C22.7452 49.6782 22.7877 49.7036 22.8305 49.7274C22.9706 49.8053 23.2341 49.918 23.4271 49.7979C23.5056 49.7397 23.5714 49.666 23.6205 49.5814C23.6594 49.5212 23.703 49.4642 23.7509 49.4109C23.85 49.3083 23.9773 49.2374 24.1167 49.2071C24.256 49.1767 24.4013 49.1882 24.5341 49.2402C24.5822 49.2607 24.6291 49.2839 24.6747 49.3095C24.7633 49.3575 24.8469 49.4027 24.9324 49.3986C25.059 49.3929 25.1546 49.2839 25.256 49.1686C25.3605 49.0496 25.4686 48.9266 25.6285 48.8878C25.6337 48.8865 25.639 48.8854 25.6442 48.8843C25.9325 48.8254 26.17 49.0803 26.3246 49.279L26.208 49.3697C25.9979 49.0996 25.8238 48.9911 25.6632 49.0313C25.5487 49.0591 25.4604 49.1596 25.3669 49.266C25.2497 49.3994 25.1284 49.5374 24.9393 49.5461C24.8128 49.5521 24.7068 49.4948 24.6044 49.4394C24.5636 49.4164 24.5216 49.3955 24.4785 49.377C24.3732 49.3368 24.2584 49.3282 24.1483 49.3522C24.0382 49.3762 23.9374 49.4318 23.8583 49.5121C23.8158 49.56 23.777 49.611 23.7423 49.6648C23.6823 49.7667 23.6015 49.8548 23.5052 49.9233C23.4559 49.9539 23.4016 49.9754 23.3447 49.9868Z" fill="#31B057"/>
<path d="M6.85126 64.8878L6.84205 64.8942L6.9312 64.9524C7.04655 65.0417 7.16894 65.1216 7.29717 65.1913L9.91214 66.8981C9.9956 66.9525 10.0932 66.9815 10.1928 66.9813C10.2925 66.9811 10.3899 66.9518 10.4732 66.8971L11.8428 65.9962C11.9314 65.9379 11.9997 65.8536 12.0383 65.7549C12.0769 65.6562 12.0839 65.5479 12.0583 65.445L11.2711 62.2795C11.2533 62.1881 11.2308 62.0977 11.2037 62.0087L11.177 61.9012L11.1702 61.9059C11.0323 61.5101 10.8048 61.1515 10.5055 60.858C10.2062 60.5645 9.84314 60.3442 9.44468 60.2141C9.04621 60.084 8.62309 60.0477 8.20828 60.108C7.79348 60.1683 7.3982 60.3235 7.05327 60.5617C6.70833 60.7998 6.42305 61.1144 6.21968 61.481C6.0163 61.8475 5.90031 62.256 5.88076 62.6747C5.86121 63.0934 5.93862 63.511 6.10696 63.8949C6.2753 64.2788 6.53002 64.6186 6.85126 64.8878L6.85126 64.8878Z" fill="white"/>
<path d="M12.0489 66.0757C12.0277 66.0948 12.0051 66.1123 11.9813 66.128L10.5496 67.0697C10.4587 67.1295 10.3522 67.1615 10.2434 67.1616C10.1346 67.1618 10.028 67.1302 9.93691 67.0707L7.20356 65.2867C7.06899 65.2135 6.94053 65.1297 6.81945 65.0359L6.71124 64.9475C6.37339 64.6582 6.10741 64.2944 5.9343 63.8847C5.76118 63.475 5.68567 63.0306 5.71373 62.5867C5.74178 62.1428 5.87263 61.7115 6.09595 61.3269C6.31927 60.9422 6.62894 60.6147 7.00052 60.3703L7.02678 60.4102C6.6594 60.6522 6.35364 60.9767 6.13391 61.3578C5.91418 61.7388 5.78655 62.166 5.76121 62.6052C5.73587 63.0444 5.81351 63.4834 5.98795 63.8872C6.16238 64.2911 6.42879 64.6485 6.7659 64.9312L6.84717 64.9969C6.96724 65.0899 7.09461 65.1731 7.22804 65.2456L9.96306 67.0307C10.0464 67.0851 10.1438 67.114 10.2433 67.1138C10.3428 67.1136 10.4402 67.0844 10.5233 67.0297L11.955 66.088C12.0433 66.0298 12.1115 65.9456 12.15 65.847C12.1885 65.7485 12.1955 65.6404 12.1701 65.5377L12.2165 65.5261C12.2408 65.6243 12.2381 65.7273 12.2085 65.824C12.179 65.9208 12.1238 66.0078 12.0489 66.0757Z" fill="#31B057"/>
<path d="M9.89816 63.0575L11.0212 65.8352L11.0786 65.812L9.9555 63.0343L9.89816 63.0575Z" fill="#31B057"/>
<path d="M8.47564 63.9929L8.43164 64.0364L10.5371 66.1681L10.5811 66.1246L8.47564 63.9929Z" fill="#31B057"/>
<path d="M12.9026 67.2331L11.0681 68.4398C11.0544 68.4487 11.0377 68.4518 11.0217 68.4485C11.0057 68.4451 10.9917 68.4356 10.9827 68.4219C10.9737 68.4083 10.9705 68.3916 10.9738 68.3756C10.977 68.3596 10.9865 68.3455 11.0001 68.3364L12.8346 67.1298C12.8414 67.1253 12.849 67.1221 12.857 67.1206C12.865 67.119 12.8732 67.119 12.8812 67.1206C12.8892 67.1223 12.8968 67.1255 12.9036 67.13C12.9103 67.1346 12.9161 67.1405 12.9206 67.1473C12.925 67.1541 12.9281 67.1617 12.9297 67.1697C12.9312 67.1777 12.9311 67.186 12.9294 67.1939C12.9278 67.2019 12.9245 67.2095 12.9199 67.2162C12.9153 67.2229 12.9094 67.2287 12.9026 67.2331Z" fill="white"/>
<path d="M12.6346 66.8541L10.8001 68.0607C10.7933 68.0653 10.7857 68.0684 10.7777 68.07C10.7697 68.0715 10.7615 68.0715 10.7535 68.0699C10.7455 68.0683 10.7379 68.0651 10.7312 68.0605C10.7244 68.0559 10.7186 68.0501 10.7142 68.0433C10.7097 68.0364 10.7066 68.0288 10.7051 68.0208C10.7035 68.0128 10.7036 68.0046 10.7053 67.9966C10.707 67.9886 10.7102 67.981 10.7148 67.9743C10.7194 67.9676 10.7253 67.9618 10.7321 67.9574L12.5666 66.7507C12.5734 66.7462 12.581 66.7431 12.589 66.7415C12.597 66.7399 12.6053 66.74 12.6133 66.7416C12.6213 66.7432 12.6288 66.7464 12.6356 66.751C12.6424 66.7555 12.6481 66.7614 12.6526 66.7682C12.6571 66.775 12.6602 66.7827 12.6617 66.7907C12.6632 66.7987 12.6632 66.8069 12.6615 66.8149C12.6598 66.8229 12.6566 66.8304 12.652 66.8372C12.6474 66.8439 12.6415 66.8496 12.6346 66.8541Z" fill="white"/>
<path d="M12.3669 66.4751L10.5324 67.6817C10.5187 67.6906 10.5021 67.6938 10.4861 67.6904C10.4701 67.6871 10.456 67.6775 10.4471 67.6639C10.4381 67.6502 10.4349 67.6336 10.4381 67.6175C10.4414 67.6015 10.4509 67.5875 10.4645 67.5784L12.299 66.3717C12.3127 66.3628 12.3293 66.3597 12.3453 66.3631C12.3613 66.3664 12.3753 66.376 12.3843 66.3896C12.3933 66.4033 12.3965 66.4199 12.3933 66.4359C12.39 66.452 12.3805 66.466 12.3669 66.4751L12.3669 66.4751Z" fill="white"/>
<path d="M12.2277 68.2051C12.5916 67.9657 12.7532 67.5689 12.5886 67.3187L11.2709 68.1855C11.4354 68.4357 11.8638 68.4444 12.2277 68.2051Z" fill="white"/>
<path d="M8.79943 63.252C8.72117 63.3035 8.61527 63.3006 8.55121 63.2924C8.53021 63.2897 8.50909 63.2863 8.4879 63.2829C8.41079 63.2706 8.33798 63.2589 8.27017 63.2798C8.12048 63.3259 8.05849 63.5067 8.01767 63.6775L7.9575 63.6631C8.00236 63.4754 8.07241 63.276 8.25196 63.2207C8.33353 63.1956 8.41698 63.2089 8.49767 63.2218C8.51821 63.2251 8.53871 63.2284 8.55907 63.231C8.62566 63.2396 8.74568 63.2424 8.8021 63.1657C8.82358 63.1308 8.83771 63.0919 8.84365 63.0514C8.84945 63.0219 8.85755 62.993 8.86786 62.9648C8.89049 62.9095 8.92897 62.8621 8.97846 62.8286C9.02795 62.7951 9.08623 62.777 9.14599 62.7766C9.16789 62.7771 9.18974 62.7788 9.21146 62.7817C9.25337 62.7865 9.29293 62.7911 9.32559 62.7763C9.37392 62.7543 9.39417 62.6971 9.41567 62.6364C9.43784 62.5739 9.46074 62.5093 9.51691 62.4693C9.51874 62.468 9.5206 62.4667 9.52247 62.4655C9.62547 62.3977 9.75751 62.46 9.84854 62.5132L9.81728 62.5666C9.69356 62.4942 9.60896 62.4791 9.55275 62.5197C9.51251 62.5483 9.49379 62.6012 9.47397 62.6571C9.44914 62.7272 9.4234 62.7998 9.3512 62.8326C9.30291 62.8546 9.25279 62.8488 9.20434 62.8431C9.18488 62.8405 9.16528 62.8389 9.14564 62.8384C9.09842 62.8392 9.05245 62.8537 9.01334 62.8801C8.97422 62.9066 8.94367 62.9439 8.9254 62.9875C8.91629 63.0127 8.90914 63.0386 8.904 63.0649C8.89653 63.1138 8.8788 63.1607 8.85196 63.2023C8.83756 63.2219 8.81977 63.2387 8.79943 63.252Z" fill="#31B057"/>
<path d="M43.5862 58.8899L43.5757 58.886L43.5793 58.9924C43.5725 59.1382 43.5774 59.2842 43.5942 59.4292L43.7004 62.5501C43.7038 62.6497 43.7362 62.7462 43.7936 62.8276C43.851 62.9091 43.931 62.972 44.0237 63.0087L45.5481 63.6117C45.6467 63.6507 45.7549 63.6581 45.8579 63.6329C45.9609 63.6078 46.0535 63.5513 46.123 63.4712L48.261 61.0076C48.3255 60.9405 48.3865 60.8702 48.4438 60.7969L48.5164 60.7132L48.5087 60.7104C48.7533 60.37 48.916 59.9777 48.9842 59.5641C49.0523 59.1505 49.0239 58.7268 48.9014 58.3259C48.7788 57.9251 48.5654 57.5579 48.2776 57.2532C47.9899 56.9484 47.6356 56.7141 47.2425 56.5687C46.8493 56.4234 46.4279 56.3707 46.0111 56.415C45.5943 56.4592 45.1933 56.5991 44.8394 56.8237C44.4855 57.0484 44.1883 57.3517 43.9709 57.7101C43.7536 58.0685 43.6219 58.4723 43.5862 58.8899L43.5862 58.8899Z" fill="white"/>
<path d="M45.6015 63.8262C45.5737 63.8199 45.5464 63.8114 45.5198 63.8009L43.9264 63.1706C43.8252 63.1306 43.7379 63.0619 43.6751 62.9729C43.6124 62.8839 43.5771 62.7786 43.5734 62.6698L43.4623 59.4077C43.4448 59.2555 43.4396 59.1022 43.4468 58.9492L43.4569 58.8099C43.4994 58.3671 43.6443 57.9403 43.8801 57.5632C44.1159 57.186 44.4361 56.8689 44.8155 56.6367C45.1949 56.4045 45.623 56.2637 46.0661 56.2254C46.5093 56.187 46.9552 56.2522 47.3689 56.4158L47.3512 56.4603C46.9421 56.2987 46.5008 56.235 46.0627 56.2742C45.6245 56.3134 45.2016 56.4545 44.8277 56.6862C44.4537 56.9178 44.1391 57.2337 43.9089 57.6086C43.6786 57.9834 43.5392 58.4069 43.5017 58.8452L43.4946 58.9495C43.4875 59.1012 43.4927 59.2532 43.51 59.4041L43.6212 62.6682C43.6245 62.7677 43.6569 62.864 43.7142 62.9453C43.7716 63.0267 43.8514 63.0895 43.944 63.1261L45.5374 63.7565C45.6359 63.7953 45.7439 63.8027 45.8467 63.7775C45.9495 63.7524 46.042 63.696 46.1115 63.6162L46.1476 63.6475C46.0812 63.7238 45.9954 63.7808 45.8992 63.8122C45.8031 63.8437 45.7002 63.8485 45.6015 63.8262Z" fill="#31B057"/>
<path d="M46.8354 60.3314L45.2078 62.8469L45.2597 62.8805L46.8873 60.365L46.8354 60.3314Z" fill="#31B057"/>
<path d="M45.252 59.7049L45.1912 59.6938L44.6568 62.642L44.7177 62.653L45.252 59.7049Z" fill="#31B057"/>
<path d="M45.145 65.1901L43.1031 64.3824C43.088 64.3763 43.0758 64.3644 43.0694 64.3494C43.0629 64.3344 43.0627 64.3174 43.0687 64.3022C43.0747 64.287 43.0865 64.2748 43.1015 64.2683C43.1164 64.2618 43.1334 64.2614 43.1486 64.2673L45.1905 65.075C45.1981 65.078 45.205 65.0824 45.2109 65.0881C45.2168 65.0937 45.2215 65.1005 45.2247 65.1079C45.228 65.1154 45.2297 65.1235 45.2299 65.1316C45.23 65.1398 45.2286 65.1479 45.2256 65.1554C45.2226 65.163 45.2181 65.1699 45.2124 65.1758C45.2067 65.1816 45.1999 65.1863 45.1925 65.1895C45.185 65.1927 45.1769 65.1944 45.1688 65.1945C45.1606 65.1946 45.1525 65.1931 45.145 65.1901Z" fill="white"/>
<path d="M45.3014 64.7528L43.2596 63.9451C43.252 63.9422 43.245 63.9378 43.2391 63.9321C43.2333 63.9265 43.2286 63.9197 43.2253 63.9122C43.222 63.9048 43.2203 63.8967 43.2201 63.8886C43.22 63.8804 43.2215 63.8723 43.2245 63.8647C43.2275 63.8572 43.2319 63.8502 43.2376 63.8444C43.2433 63.8385 43.2501 63.8339 43.2576 63.8307C43.2651 63.8274 43.2731 63.8257 43.2813 63.8256C43.2894 63.8255 43.2975 63.8271 43.3051 63.8301L45.3469 64.6378C45.3545 64.6408 45.3614 64.6452 45.3673 64.6508C45.3732 64.6565 45.3779 64.6632 45.3812 64.6707C45.3844 64.6782 45.3862 64.6862 45.3863 64.6944C45.3865 64.7025 45.385 64.7106 45.382 64.7182C45.379 64.7258 45.3745 64.7327 45.3688 64.7385C45.3632 64.7444 45.3564 64.7491 45.3489 64.7523C45.3414 64.7555 45.3333 64.7572 45.3252 64.7573C45.317 64.7574 45.3089 64.7559 45.3014 64.7528Z" fill="white"/>
<path d="M45.4575 64.316L43.4156 63.5083C43.4005 63.5022 43.3883 63.4904 43.3819 63.4754C43.3754 63.4604 43.3752 63.4434 43.3812 63.4282C43.3872 63.413 43.399 63.4008 43.414 63.3943C43.4289 63.3877 43.4459 63.3874 43.4611 63.3933L45.503 64.201C45.5181 64.2071 45.5303 64.219 45.5367 64.234C45.5432 64.249 45.5434 64.2659 45.5374 64.2811C45.5314 64.2963 45.5196 64.3085 45.5046 64.3151C45.4896 64.3216 45.4727 64.322 45.4575 64.316L45.4575 64.316Z" fill="white"/>
<path d="M43.9618 65.1964C44.3668 65.3566 44.7845 65.2607 44.8946 64.9823L43.4279 64.4021C43.3178 64.6805 43.5568 65.0361 43.9618 65.1964Z" fill="white"/>
<path d="M46.0447 59.544C45.9575 59.5096 45.899 59.4213 45.8689 59.3641C45.8591 59.3454 45.8497 59.3262 45.8403 59.3069C45.8061 59.2367 45.7738 59.1704 45.7177 59.1269C45.5939 59.0309 45.4103 59.0841 45.2471 59.1488L45.2243 59.0914C45.4037 59.0202 45.6071 58.9629 45.7556 59.078C45.823 59.1303 45.8601 59.2063 45.8959 59.2798C45.905 59.2985 45.9141 59.3171 45.9236 59.3353C45.9549 59.3947 46.0216 59.4946 46.1168 59.4966C46.1577 59.4941 46.1976 59.4834 46.2342 59.4649C46.2617 59.4527 46.29 59.4427 46.319 59.435C46.3773 59.4217 46.4382 59.4259 46.494 59.4472C46.5499 59.4684 46.5982 59.5057 46.6329 59.5544C46.645 59.5726 46.6562 59.5915 46.6663 59.6109C46.6864 59.648 46.7054 59.683 46.7364 59.7012C46.7821 59.7281 46.8406 59.7118 46.9025 59.6945C46.9665 59.6767 47.0325 59.6583 47.0975 59.6813C47.0996 59.6821 47.1017 59.6829 47.1038 59.6837C47.2185 59.729 47.2434 59.8729 47.2522 59.978L47.1905 59.9831C47.1786 59.8402 47.1424 59.7623 47.0769 59.7396C47.0303 59.7231 46.9763 59.7382 46.9192 59.7541C46.8475 59.7741 46.7733 59.7947 46.705 59.7545C46.6593 59.7276 46.6352 59.6833 46.6119 59.6404C46.6029 59.623 46.5929 59.606 46.5821 59.5897C46.5543 59.5515 46.516 59.5222 46.4719 59.5054C46.4277 59.4886 46.3797 59.485 46.3335 59.4951C46.3077 59.5021 46.2824 59.5111 46.2579 59.5221C46.2135 59.5441 46.165 59.5565 46.1155 59.5585C46.0912 59.5579 46.0672 59.553 46.0447 59.544Z" fill="#31B057"/>
<path d="M99.6512 35.2831C102.273 35.2831 104.398 33.1578 104.398 30.5362C104.398 27.9146 102.273 25.7893 99.6512 25.7893C97.0296 25.7893 94.9043 27.9146 94.9043 30.5362C94.9043 33.1578 97.0296 35.2831 99.6512 35.2831Z" fill="#F2F2F2"/>
<path d="M169.668 35.2831C172.29 35.2831 174.415 33.1578 174.415 30.5362C174.415 27.9146 172.29 25.7893 169.668 25.7893C167.046 25.7893 164.921 27.9146 164.921 30.5362C164.921 33.1578 167.046 35.2831 169.668 35.2831Z" fill="#F2F2F2"/>
<path d="M64.1066 140.645C65.141 140.645 65.9796 139.807 65.9796 138.772C65.9796 137.738 65.141 136.899 64.1066 136.899C63.0722 136.899 62.2336 137.738 62.2336 138.772C62.2336 139.807 63.0722 140.645 64.1066 140.645Z" fill="#31B057"/>
<path d="M64.1066 144.183C63.0365 144.183 61.9903 143.866 61.1005 143.271C60.2107 142.677 59.5172 141.831 59.1077 140.843C58.6981 139.854 58.591 138.766 58.7998 137.717C59.0085 136.667 59.5239 135.703 60.2806 134.946C61.0373 134.189 62.0014 133.674 63.051 133.465C64.1006 133.257 65.1886 133.364 66.1773 133.773C67.166 134.183 68.011 134.876 68.6056 135.766C69.2001 136.656 69.5175 137.702 69.5175 138.772C69.5159 140.207 68.9453 141.582 67.9309 142.596C66.9165 143.611 65.5412 144.181 64.1066 144.183ZM64.1066 133.778C63.1188 133.778 62.1531 134.07 61.3318 134.619C60.5104 135.168 59.8702 135.948 59.4922 136.861C59.1142 137.773 59.0153 138.778 59.208 139.747C59.4007 140.715 59.8764 141.605 60.5749 142.304C61.2734 143.002 62.1634 143.478 63.1322 143.671C64.1011 143.864 65.1053 143.765 66.018 143.387C66.9306 143.009 67.7107 142.368 68.2595 141.547C68.8083 140.726 69.1013 139.76 69.1013 138.772C69.0997 137.448 68.573 136.178 67.6367 135.242C66.7003 134.306 65.4308 133.779 64.1066 133.778Z" fill="#2F2E41"/>
<path d="M155.247 140.883C156.282 140.883 157.12 140.044 157.12 139.01C157.12 137.975 156.282 137.137 155.247 137.137C154.213 137.137 153.374 137.975 153.374 139.01C153.374 140.044 154.213 140.883 155.247 140.883Z" fill="#31B057"/>
<path d="M155.247 144.421C154.177 144.421 153.131 144.103 152.241 143.509C151.351 142.914 150.658 142.069 150.248 141.08C149.839 140.092 149.732 139.004 149.94 137.954C150.149 136.905 150.665 135.94 151.421 135.184C152.178 134.427 153.142 133.912 154.192 133.703C155.241 133.494 156.329 133.601 157.318 134.011C158.307 134.42 159.152 135.114 159.746 136.004C160.341 136.893 160.658 137.94 160.658 139.01C160.656 140.444 160.086 141.82 159.072 142.834C158.057 143.848 156.682 144.419 155.247 144.421ZM155.247 134.015C154.259 134.015 153.294 134.308 152.472 134.857C151.651 135.406 151.011 136.186 150.633 137.098C150.255 138.011 150.156 139.015 150.349 139.984C150.541 140.953 151.017 141.843 151.716 142.541C152.414 143.24 153.304 143.716 154.273 143.908C155.242 144.101 156.246 144.002 157.159 143.624C158.071 143.246 158.851 142.606 159.4 141.785C159.949 140.963 160.242 139.998 160.242 139.01C160.24 137.686 159.714 136.416 158.777 135.48C157.841 134.543 156.571 134.017 155.247 134.015V134.015Z" fill="white"/>
<path d="M155.247 130.439C156.282 130.439 157.12 129.601 157.12 128.566C157.12 127.532 156.282 126.693 155.247 126.693C154.213 126.693 153.374 127.532 153.374 128.566C153.374 129.601 154.213 130.439 155.247 130.439Z" fill="#31B057"/>
<path d="M155.247 133.977C154.177 133.977 153.131 133.66 152.241 133.065C151.351 132.471 150.658 131.626 150.248 130.637C149.839 129.648 149.732 128.56 149.94 127.511C150.149 126.461 150.665 125.497 151.421 124.74C152.178 123.984 153.142 123.468 154.192 123.259C155.241 123.051 156.329 123.158 157.318 123.567C158.307 123.977 159.152 124.67 159.746 125.56C160.341 126.45 160.658 127.496 160.658 128.566C160.656 130.001 160.086 131.376 159.072 132.391C158.057 133.405 156.682 133.976 155.247 133.977ZM155.247 123.572C154.259 123.572 153.294 123.865 152.472 124.413C151.651 124.962 151.011 125.742 150.633 126.655C150.255 127.568 150.156 128.572 150.349 129.541C150.541 130.51 151.017 131.4 151.716 132.098C152.414 132.797 153.304 133.272 154.273 133.465C155.242 133.658 156.246 133.559 157.159 133.181C158.071 132.803 158.851 132.163 159.4 131.341C159.949 130.52 160.242 129.554 160.242 128.566C160.24 127.242 159.714 125.973 158.777 125.036C157.841 124.1 156.571 123.573 155.247 123.572Z" fill="white"/>
<path d="M97.1908 119.049C97.1908 119.049 105.872 119.411 105.872 121.581C105.872 123.751 96.1057 121.581 96.1057 121.581L97.1908 119.049Z" fill="#A0616A"/>
<path d="M84.1697 152.326L67.8931 151.241L67.1697 142.56L63.5526 150.156L47.6377 147.985C47.9994 134.241 53.7867 120.858 54.1484 119.049C54.5101 117.241 55.3745 109.768 55.3745 109.768C56.9552 106.415 65.2381 106.1 71.7307 106.404C74.4218 106.527 76.8091 106.759 78.2812 106.925C79.2541 107.033 79.8293 107.113 79.8293 107.113C82.4227 109.786 84.0938 113.428 85.121 117.497C88.8248 132.157 84.1697 152.326 84.1697 152.326Z" fill="#333333"/>
<path d="M66.0846 68.4106C71.0787 68.4106 75.1272 64.3621 75.1272 59.368C75.1272 54.3739 71.0787 50.3254 66.0846 50.3254C61.0905 50.3254 57.042 54.3739 57.042 59.368C57.042 64.3621 61.0905 68.4106 66.0846 68.4106Z" fill="#A0616A"/>
<path d="M59.9357 61.5383C59.9357 61.5383 57.4038 72.7511 53.4251 76.0064C49.4463 79.2618 68.9783 76.0064 68.9783 76.0064C68.9783 76.0064 64.6378 68.7724 67.8932 65.5171C71.1485 62.2617 59.9357 61.5383 59.9357 61.5383Z" fill="#A0616A"/>
<path d="M78.3825 107.836L72.3818 108.502L55.5952 110.368C55.5952 110.368 55.5156 110.155 55.3745 109.768C54.1556 106.444 48.2852 90.2685 47.6377 85.4108C46.9143 79.9853 54.51 73.4746 54.51 73.4746C54.51 73.4746 61.7441 72.0278 63.9143 72.0278C66.0845 72.0278 74.7654 75.2832 74.7654 75.2832L78.0027 104.404L78.2812 106.925L78.3825 107.836Z" fill="#9B51E0"/>
<path opacity="0.15" d="M85.121 117.498L72.957 110.368C72.957 110.368 72.7435 109.674 72.3818 108.502C72.201 107.916 71.9804 107.207 71.7308 106.404C70.3274 101.897 67.9727 94.4606 66.0846 89.0279C63.191 80.7087 77.2974 103.858 77.2974 103.858L78.0027 104.404L78.2812 106.925C79.2542 107.033 79.8293 107.113 79.8293 107.113C82.4227 109.786 84.0938 113.428 85.121 117.498Z" fill="black"/>
<path d="M68.9782 76.0066C68.9782 76.0066 65.3612 80.7088 68.2548 89.028C71.1485 97.3471 75.1272 110.368 75.1272 110.368L96.106 122.666L98.9996 119.049L79.4676 103.858C79.4676 103.858 78.7442 76.3684 75.1272 75.2832C71.5102 74.1981 68.9782 76.0066 68.9782 76.0066Z" fill="#9B51E0"/>
<path d="M51.074 107.656C51.074 107.656 56.1378 118.145 58.308 117.06C60.4783 115.975 52.8825 105.124 52.8825 105.124L51.074 107.656Z" fill="#A0616A"/>
<path d="M50.5314 78.9001L31.3611 94.8151C31.3611 94.8151 24.1271 99.8789 37.5101 103.496C50.8931 107.113 51.9782 109.283 51.9782 109.283C51.9782 109.283 53.425 104.581 55.2335 105.304L39.6803 97.7087L52.3399 90.1129L50.5314 78.9001Z" fill="#9B51E0"/>
<path d="M42.8266 66.7901C43.8327 66.2918 46.0545 65.2862 47.9469 64.0747C47.8142 60.1334 48.2996 56.5555 49.7203 54.659C50.5177 52.8483 52.1923 51.0355 53.5039 49.6079C56.7247 46.102 63.8467 44.1451 65.1099 45.8968C74.6638 46.0854 75.6696 53.5742 75.6696 53.5742C75.6199 56.7066 72.3644 56.8057 69.5125 56.6916C69.7679 58.83 69.0873 61.052 67.1165 62.0374C63.3478 63.9217 62.2172 66.3714 64.1016 68.0673C65.9859 69.7633 69.3778 74.2857 64.8553 75.4163C60.3328 76.5469 59.7675 78.8082 61.0866 79.7504C62.4057 80.6925 58.0716 78.0544 58.0716 78.0544C58.0716 78.0544 57.3179 82.5769 53.3607 81.4463C53.0061 81.345 52.6516 81.0853 52.3032 80.6971C51.2344 81.8714 50.281 82.5657 49.5624 82.5695C45.447 82.5913 45.9405 78.0331 45.9405 78.0331C45.9405 78.0331 41.0557 79.405 42.5799 78.8533C44.1042 78.3017 44.1695 75.9718 40.1193 73.6637C36.0691 71.3556 40.5547 67.9151 42.8266 66.7901Z" fill="#333333"/>
</g>
<defs>
<linearGradient id="paint0_linear" x1="28.5358" y1="142.12" x2="44.5245" y2="135.821" gradientUnits="userSpaceOnUse">
<stop stop-color="#31B057"/>
<stop offset="1" stop-color="#008427" stop-opacity="0"/>
</linearGradient>
<linearGradient id="paint1_linear" x1="110.338" y1="70.4422" x2="114.477" y2="66.7009" gradientUnits="userSpaceOnUse">
<stop stop-color="#31B057"/>
<stop offset="1" stop-color="#008427" stop-opacity="0"/>
</linearGradient>
<clipPath id="clip0">
<rect width="195.23" height="147" fill="white"/>
</clipPath>
</defs>
</svg>
