<svg width="196" height="147" viewBox="0 0 196 147" fill="none" xmlns="http://www.w3.org/2000/svg">
<g clip-path="url(#clip0)">
<path d="M8.40953 0H186.82C189.05 0 191.189 0.886002 192.766 2.46309C194.344 4.04019 195.23 6.17918 195.23 8.40953V128.858H0V8.40953C0 6.17918 0.886002 4.04019 2.46309 2.46309C4.04019 0.886002 6.17918 0 8.40953 0V0Z" fill="#333333"/>
<path d="M112.658 34.794C118.156 34.794 122.612 30.3375 122.612 24.8402C122.612 19.3429 118.156 14.8865 112.658 14.8865C107.161 14.8865 102.705 19.3429 102.705 24.8402C102.705 30.3375 107.161 34.794 112.658 34.794Z" fill="#F2F2F2"/>
<path d="M0 122.568H195.23V140.025C195.23 141.875 194.495 143.649 193.186 144.957C191.878 146.265 190.104 147 188.254 147H6.97547C5.12546 147 3.35123 146.265 2.04307 144.957C0.734915 143.649 5.99978e-07 141.875 0 140.025L0 122.568Z" fill="#333333"/>
<path opacity="0.1" d="M14.1389 137.273C20.3234 137.273 25.3369 135.652 25.3369 133.653C25.3369 131.654 20.3234 130.033 14.1389 130.033C7.95443 130.033 2.94092 131.654 2.94092 133.653C2.94092 135.652 7.95443 137.273 14.1389 137.273Z" fill="black"/>
<path opacity="0.1" d="M122.481 139.127C130.852 139.127 137.638 137.506 137.638 135.507C137.638 133.508 130.852 131.887 122.481 131.887C114.11 131.887 107.324 133.508 107.324 135.507C107.324 137.506 114.11 139.127 122.481 139.127Z" fill="black"/>
<path opacity="0.3" d="M86.1211 49.2121V37.8804H49.8596V49.2121H38.5278V62.4864H12.303V114.612H97.7766V49.2121H86.1211ZM38.2041 109.432H18.1307V105.547H38.2041V109.432ZM38.2041 97.4529H18.1307V93.5677H38.2041V97.4529ZM38.2041 85.4736H18.1307V81.5885H38.2041V85.4736ZM38.2041 73.4944H18.1307V69.6092H38.2041V73.4944ZM59.5725 106.195H47.917V94.539H59.5725V106.195ZM59.5725 87.4162H47.917V75.7607H59.5725V87.4162ZM59.5725 68.6379H47.917V56.9824H59.5725V68.6379ZM89.3588 106.195H77.7033V94.539H89.3588V106.195ZM89.3588 87.4162H77.7033V75.7607H89.3588V87.4162ZM89.3588 68.6379H77.7033V56.9824H89.3588V68.6379Z" fill="#9B51E0"/>
<path opacity="0.3" d="M111.375 49.2121V114.612H194.582V62.4864H169.053V49.2121H158.021V37.8804H122.721V49.2121H111.375ZM169.368 105.547H188.909V109.432H169.368V105.547ZM169.368 93.5677H188.909V97.4529H169.368V93.5677ZM169.368 81.5885H188.909V85.4736H169.368V81.5885ZM169.368 69.6092H188.909V73.4944H169.368V69.6092ZM148.566 94.539H159.912V106.195H148.566V94.539ZM148.566 75.7607H159.912V87.4162H148.566V75.7607ZM148.566 56.9824H159.912V68.6379H148.566V56.9824ZM119.569 94.539H130.916V106.195H119.569V94.539ZM119.569 75.7607H130.916V87.4162H119.569V75.7607ZM119.569 56.9824H130.916V68.6379H119.569V56.9824Z" fill="#9B51E0"/>
<path d="M182.927 0H8.40953C6.17919 0 4.04019 0.886001 2.46309 2.46309C0.886001 4.04019 0 6.17919 0 8.40953V128.858H195.23V8.40953C195.23 6.17919 194.344 4.04019 192.766 2.46309C191.189 0.886001 189.05 0 186.82 0H182.927ZM12.303 14.2456H82.236V114.612H12.303V14.2456ZM182.927 114.612H112.67V14.2456H182.927V114.612Z" fill="#3F3D56"/>
<path d="M182.927 0H8.40953C6.17919 0 4.04019 0.886001 2.46309 2.46309C0.886001 4.04019 0 6.17919 0 8.40953V128.858H195.23V8.40953C195.23 6.17919 194.344 4.04019 192.766 2.46309C191.189 0.886001 189.05 0 186.82 0H182.927ZM12.303 14.2456H82.236V114.612H12.303V14.2456ZM182.927 114.612H112.67V14.2456H182.927V114.612Z" fill="black"/>
<path opacity="0.1" d="M203.015 127.848C203.015 138.873 187.647 135.463 168.83 135.463C150.013 135.463 134.874 138.873 134.874 127.848C134.874 116.822 150.24 114.424 169.057 114.424C187.873 114.424 203.015 116.822 203.015 127.848Z" fill="#2E2E2E"/>
<path d="M203.015 125.133C203.015 136.158 187.647 132.748 168.83 132.748C150.013 132.748 134.874 136.158 134.874 125.133C134.874 114.107 150.24 111.709 169.057 111.709C187.873 111.709 203.015 114.107 203.015 125.133Z" fill="#9B51E0"/>
<path d="M17.0377 133.266H10.5976L7.42737 124.887L21.2649 125.056L17.0377 133.266Z" fill="#2F2E41"/>
<path opacity="0.1" d="M17.0377 133.266H10.5976L7.42737 124.887L21.2649 125.056L17.0377 133.266Z" fill="black"/>
<path d="M18.1791 94.4626C18.3336 95.644 18.4695 96.9729 18.5486 98.3822L21.3362 93.6585L21.3697 93.7214C20.9542 92.8055 20.4117 91.9527 19.7583 91.1882L19.7941 91.2467L18.1791 94.4626Z" fill="#31B057"/>
<path d="M19.7162 91.1401C19.1005 90.412 18.3103 89.8519 17.4193 89.5122C17.376 89.4971 17.3327 89.4833 17.2894 89.4697C17.3655 89.7846 17.7994 91.6357 18.1517 94.2553L19.7162 91.1401Z" fill="#31B057"/>
<path d="M18.3886 105.173C18.3533 105.474 18.3139 105.771 18.2705 106.063L22.9393 101.877L22.9626 101.954C22.975 101.448 22.969 100.946 22.9444 100.448L18.4007 105.207L18.3886 105.173Z" fill="#31B057"/>
<path d="M18.5954 102.414L22.5689 97.5063L22.5974 97.5772C22.3495 96.2719 21.948 95.0006 21.401 93.7898L18.5602 98.6035C18.6283 99.9247 18.64 101.195 18.5954 102.414Z" fill="#31B057"/>
<path d="M18.4625 98.5427L11.4541 93.3305L11.47 93.2522C11.0868 94.1174 10.7919 95.0192 10.59 95.9437L18.5199 101.559C18.5373 100.5 18.5123 99.4841 18.4625 98.5427Z" fill="#31B057"/>
<path d="M18.4931 102.507C18.5036 102.248 18.5116 101.991 18.5168 101.735L10.5576 96.0997L10.5727 96.021C10.5013 96.3467 10.4385 96.6814 10.3842 97.025L10.3987 96.9461L18.4931 102.507Z" fill="#31B057"/>
<path d="M18.408 104.998L22.9139 100.278L22.9397 100.352C22.8918 99.4492 22.783 98.5508 22.6141 97.6628L18.5869 102.637C18.5526 103.45 18.4929 104.237 18.408 104.998Z" fill="#31B057"/>
<path d="M10.7742 103.423L10.795 103.338L17.4959 109.171C17.76 108.241 17.9682 107.297 18.1192 106.343L10.277 100.869C10.3855 101.731 10.5516 102.584 10.7742 103.423Z" fill="#31B057"/>
<path d="M17.1915 89.4837L17.2346 89.4528C15.9488 89.069 14.7067 89.3908 13.631 90.2638L18.0574 94.2696C17.6756 91.4355 17.1984 89.5113 17.1915 89.4837Z" fill="#31B057"/>
<path d="M22.4157 105.347C22.6792 104.588 22.8454 103.798 22.9103 102.996C22.9344 102.681 22.9509 102.367 22.9598 102.053L18.2354 106.289C18.2212 106.38 18.2075 106.471 18.1925 106.56C18.0508 107.42 17.8624 108.272 17.6281 109.111L22.3948 105.272L22.4157 105.347Z" fill="#31B057"/>
<path d="M18.0854 94.4809L13.5574 90.383L13.5767 90.3076C12.6807 91.1017 11.9717 92.0844 11.5009 93.1851L18.4522 98.3549C18.373 96.9616 18.2382 95.6484 18.0854 94.4809Z" fill="#31B057"/>
<path d="M18.1411 106.179L18.1456 106.175C18.3215 105.017 18.435 103.851 18.4854 102.681L10.3712 97.1057C10.2997 97.5715 10.2448 98.0521 10.2064 98.5474C10.1576 99.2564 10.1736 99.9683 10.2541 100.674L18.1411 106.179Z" fill="#31B057"/>
<path d="M29.8578 110.745L29.8481 110.813L26.5531 112.26C25.9185 113.268 25.1757 114.379 24.3376 115.515L29.4975 113.654L29.4832 113.724C29.7474 112.754 29.8735 111.751 29.8578 110.745Z" fill="#31B057"/>
<path d="M29.856 110.682C29.8462 109.728 29.5948 108.793 29.1253 107.963C29.1016 107.924 29.077 107.885 29.0523 107.847C28.9101 108.138 28.0637 109.841 26.6642 112.083L29.856 110.682Z" fill="#31B057"/>
<path d="M19.8833 120.643C19.664 120.852 19.4444 121.056 19.2245 121.253L25.4901 121.007L25.4592 121.081C25.7914 120.699 26.107 120.309 26.4059 119.909L19.8706 120.677L19.8833 120.643Z" fill="#31B057"/>
<path d="M21.8019 118.65L27.9926 117.404L27.9693 117.477C28.6109 116.314 29.1125 115.079 29.4635 113.797L24.2053 115.693C23.415 116.754 22.6139 117.739 21.8019 118.65Z" fill="#31B057"/>
<path d="M20.0098 120.52L26.4906 119.759L26.4632 119.832C27.002 119.107 27.4913 118.345 27.9276 117.554L21.6532 118.816C21.1083 119.42 20.5605 119.988 20.0098 120.52Z" fill="#31B057"/>
<path d="M12.8471 125.26C12.8837 125.204 12.9207 125.147 12.9588 125.088C14.2154 124.617 15.4107 123.996 16.5189 123.239L15.7599 118.621C15.7876 118.494 15.8136 118.365 15.8378 118.237L16.6458 123.153C17.4421 122.605 18.2048 122.01 18.9298 121.372L16.6022 112.955C16.643 112.922 16.684 112.888 16.7263 112.854L19.051 121.26L19.057 121.26C19.9309 120.48 20.7623 119.654 21.5474 118.785L19.1947 110.515C19.2336 110.472 19.2724 110.43 19.3112 110.387L21.6637 118.657C21.8373 118.463 22.0075 118.27 22.1744 118.077L19.9136 109.68C19.9515 109.634 19.9894 109.587 20.0272 109.54L22.2897 117.943C22.9781 117.139 23.607 116.34 24.1691 115.583L22.0957 107.099L22.1579 107.049C21.933 107.159 21.7066 107.282 21.4795 107.411C21.8309 106.795 22.1285 106.15 22.3689 105.483L17.5565 109.359C17.3281 110.142 17.048 110.909 16.7182 111.655C16.6405 111.766 16.5628 111.876 16.4874 111.99L16.5152 112.09C16.483 112.157 16.4512 112.224 16.4184 112.29L16.3808 112.154C16.3272 112.238 16.276 112.325 16.2235 112.41C16.7316 111.421 17.1434 110.386 17.4534 109.318L10.8015 103.528C10.9615 104.132 11.1463 104.735 11.3472 105.33C10.6981 104.638 9.95864 104.036 9.14883 103.541L9.20102 103.585L8.65911 107.143C9.17118 108.219 9.71124 109.44 10.222 110.756L11.3968 105.476C11.422 105.549 11.4477 105.622 11.4734 105.696L10.3015 110.963C10.7746 112.199 11.1784 113.403 11.5128 114.576L13.2724 109.99C13.299 110.045 13.3256 110.101 13.3521 110.155L11.5736 114.791C11.7921 115.575 11.9786 116.342 12.133 117.091L14.4454 112.279C14.4734 112.331 14.5007 112.381 14.5278 112.43L12.1909 117.293L12.1688 117.264C12.2283 117.561 12.2826 117.856 12.3317 118.147L15.0802 113.409C15.1105 113.461 15.1386 113.509 15.1644 113.553L12.3682 118.373C12.3828 118.463 12.3978 118.554 12.4113 118.644C12.5423 119.506 12.6263 120.374 12.663 121.244L12.9361 120.826C12.8985 120.975 12.8621 121.121 12.827 121.265L12.6716 121.503C12.6753 121.636 12.6753 121.767 12.6765 121.899C12.6365 122.072 12.5984 122.241 12.5621 122.406C12.5678 122.103 12.5689 121.8 12.5607 121.495L4.44495 118.045C7.26877 122.42 11.6858 126.229 11.968 126.47C12.0808 126.094 12.1749 125.711 12.254 125.323C12.2973 125.31 12.3405 125.297 12.3836 125.284C12.3743 125.331 12.3642 125.378 12.3544 125.425C12.3327 125.432 12.3109 125.44 12.2892 125.447C12.3074 125.448 12.3293 125.45 12.3491 125.451C12.2929 125.722 12.232 125.989 12.1614 126.25C12.2891 126.078 12.4794 125.813 12.7071 125.472C14.4689 125.559 19.1641 125.555 22.7508 123.42L16.5721 123.336C15.4152 124.13 14.1639 124.776 12.8471 125.26ZM15.4817 116.928L15.5943 116.755L15.63 116.972L15.5173 117.145L15.4817 116.928Z" fill="#31B057"/>
<path d="M28.968 107.796L29.0209 107.799C28.2754 106.684 27.1134 106.139 25.7281 106.125L26.5824 112.034C28.0959 109.608 28.9557 107.821 28.968 107.796Z" fill="#31B057"/>
<path d="M18.8476 121.586C18.1899 122.158 17.5016 122.694 16.7858 123.191L22.9058 123.274L22.8738 123.346C23.5613 122.929 24.1931 122.426 24.7542 121.85C24.9737 121.623 25.1869 121.392 25.3938 121.156L19.0535 121.405C18.9849 121.465 18.9162 121.527 18.8476 121.586Z" fill="#31B057"/>
<path d="M22.2244 107.017L24.2809 115.432C25.1086 114.309 25.8423 113.211 26.4693 112.215L25.5955 106.171L25.6585 106.125C24.4619 106.165 23.2891 106.47 22.2244 107.017Z" fill="#31B057"/>
<path d="M9.09389 103.508C8.28332 103.006 7.35864 102.718 6.40632 102.67C6.3604 102.669 6.315 102.669 6.26965 102.67C6.43929 102.946 7.42415 104.572 8.5689 106.954L9.09389 103.508Z" fill="#31B057"/>
<path d="M10.1897 110.936L1.91342 108.145L1.90437 108.066C1.80734 109.007 1.80566 109.956 1.89937 110.897L11.1765 113.786C10.866 112.774 10.528 111.816 10.1897 110.936Z" fill="#31B057"/>
<path d="M11.4442 114.697C11.3741 114.447 11.3021 114.2 11.2281 113.955L1.91671 111.056L1.90674 110.976C1.93952 111.308 1.98319 111.646 2.03774 111.989L2.02725 111.91L11.4442 114.697Z" fill="#31B057"/>
<path d="M12.5557 121.342C12.5196 120.376 12.4256 119.414 12.2742 118.46L3.12427 115.678C3.49374 116.464 3.91547 117.224 4.3866 117.954L4.38014 117.866L12.5557 121.342Z" fill="#31B057"/>
<path d="M6.1809 102.713L6.21238 102.67C4.87088 102.703 3.7891 103.393 3.03589 104.556L8.4838 106.997C7.2446 104.42 6.19601 102.737 6.1809 102.713Z" fill="#31B057"/>
<path d="M8.57558 107.189L3.00271 104.692L2.99776 104.614C2.39103 105.646 2.02054 106.8 1.91296 107.992L10.1219 110.76C9.61593 109.46 9.08186 108.252 8.57558 107.189Z" fill="#31B057"/>
<path d="M12.2475 118.292C12.0569 117.137 11.8043 115.992 11.4907 114.864L2.05054 112.07C2.12653 112.535 2.22285 113.009 2.33947 113.492C2.51218 114.181 2.7474 114.854 3.04222 115.5L12.2445 118.297L12.2475 118.292Z" fill="#31B057"/>
<path d="M17.0377 134.172H10.5976L7.65356 125.339H21.0859L17.0377 134.172Z" fill="#2F2E41"/>
<path d="M111.293 58.5456L108.874 69.4256L106.911 78.252L105.345 85.2915L103.383 94.118L96.9704 122.954L17.5086 86.236L11.6677 83.5366L4.27425 80.1197L-1.56865 77.4203L-8.59644 74.1724L-4.61235 68.376L-1.29916 63.556L2.8921 57.458L6.20407 52.641L43.4753 -1.5835L82.9582 33.4237L89.9892 39.6573L95.5956 44.6281L102.627 50.8617L111.293 58.5456Z" fill="#F2F2F2"/>
<path d="M58.2037 58.2852H40.9895V75.4993H58.2037V58.2852Z" fill="#31B057"/>
<path d="M70.5429 47.3167C76.6426 47.3167 81.5873 42.3719 81.5873 36.2723C81.5873 30.1726 76.6426 25.2278 70.5429 25.2278C64.4432 25.2278 59.4984 30.1726 59.4984 36.2723C59.4984 42.3719 64.4432 47.3167 70.5429 47.3167Z" fill="#31B057"/>
<path d="M42.521 45.4717L40.3309 43.1236L42.6789 40.9336L44.869 43.2816L42.521 45.4717ZM40.68 43.1358L42.5331 45.1226L44.5199 43.2694L42.6668 41.2827L40.68 43.1358Z" fill="#3F3D56"/>
<path d="M73.285 48.688C70.2721 48.688 67.3268 47.7945 64.8216 46.1206C62.3164 44.4467 60.3639 42.0675 59.2109 39.2839C58.0579 36.5003 57.7562 33.4373 58.344 30.4823C58.9318 27.5272 60.3827 24.8128 62.5131 22.6823C64.6436 20.5518 67.358 19.101 70.3131 18.5132C73.2681 17.9254 76.3311 18.2271 79.1147 19.3801C81.8983 20.5331 84.2775 22.4856 85.9514 24.9908C87.6253 27.496 88.5188 30.4413 88.5188 33.4542C88.5142 37.4931 86.9078 41.3652 84.0519 44.2211C81.196 47.077 77.3239 48.6834 73.285 48.688ZM73.285 18.5251C70.3323 18.5251 67.446 19.4007 64.9909 21.0411C62.5358 22.6816 60.6223 25.0132 59.4924 27.7411C58.3624 30.469 58.0668 33.4708 58.6428 36.3667C59.2189 39.2627 60.6407 41.9228 62.7286 44.0107C64.8164 46.0985 67.4766 47.5204 70.3725 48.0964C73.2685 48.6725 76.2702 48.3768 78.9981 47.2469C81.7261 46.1169 84.0577 44.2034 85.6981 41.7484C87.3385 39.2933 88.2141 36.4069 88.2141 33.4542C88.2096 29.4962 86.6353 25.7015 83.8366 22.9027C81.0378 20.1039 77.2431 18.5296 73.285 18.5251Z" fill="#3F3D56"/>
<path d="M63.9069 45.3065L59.9716 53.4966L60.2462 53.6285L64.1815 45.4385L63.9069 45.3065Z" fill="#3F3D56"/>
<path d="M62.9984 64.3971L62.8534 64.665L80.1876 74.0462L80.3326 73.7782L62.9984 64.3971Z" fill="#3F3D56"/>
<path d="M102.483 87.4994H68.3191L85.4008 57.9128L102.483 87.4994ZM69.1027 87.047H101.699L85.4008 58.8176L69.1027 87.047Z" fill="#3F3D56"/>
<path d="M63.0783 75.6517H40.837V53.4104H63.0783V75.6517ZM41.1417 75.347H62.7736V53.7151H41.1417V75.347Z" fill="#3F3D56"/>
<path d="M70.7927 73.702L70.7486 73.6916L70.8157 74.1176C70.8604 74.7069 70.9526 75.2916 71.0915 75.866L73.0616 88.3591C73.1244 88.7579 73.3023 89.1296 73.5735 89.4286C73.8446 89.7277 74.1971 89.9411 74.5878 90.0426L81.014 91.7131C81.4295 91.8211 81.8684 91.7974 82.2699 91.6453C82.6713 91.4933 83.0157 91.2203 83.2554 90.8641L90.6319 79.9036C90.8582 79.6022 91.0688 79.2892 91.2629 78.9661L91.5133 78.5939L91.4809 78.5863C92.296 77.097 92.7561 75.4397 92.8254 73.7434C92.8947 72.0471 92.5714 70.3577 91.8805 68.807C91.1897 67.2562 90.15 65.8859 88.8426 64.803C87.5352 63.72 85.9953 62.9536 84.343 62.5635C82.6908 62.1734 80.9707 62.1702 79.317 62.5541C77.6633 62.938 76.1206 63.6986 74.8091 64.7766C73.4976 65.8547 72.4528 67.221 71.7561 68.7692C71.0595 70.3174 70.7298 72.0055 70.7927 73.702L70.7927 73.702Z" fill="#31B057"/>
<path d="M70.7927 73.702L70.7486 73.6916L70.8157 74.1176C70.8604 74.7069 70.9526 75.2916 71.0915 75.866L73.0616 88.3591C73.1244 88.7579 73.3023 89.1296 73.5735 89.4286C73.8446 89.7277 74.1971 89.9411 74.5878 90.0426L81.014 91.7131C81.4295 91.8211 81.8684 91.7974 82.2699 91.6453C82.6713 91.4933 83.0157 91.2203 83.2554 90.8641L90.6319 79.9036C90.8582 79.6022 91.0688 79.2892 91.2629 78.9661L91.5133 78.5939L91.4809 78.5863C92.296 77.097 92.7561 75.4397 92.8254 73.7434C92.8947 72.0471 92.5714 70.3577 91.8805 68.807C91.1897 67.2562 90.15 65.8859 88.8426 64.803C87.5352 63.72 85.9953 62.9536 84.343 62.5635C82.6908 62.1734 80.9707 62.1702 79.317 62.5541C77.6633 62.938 76.1206 63.6986 74.8091 64.7766C73.4976 65.8547 72.4528 67.221 71.7561 68.7692C71.0595 70.3174 70.7298 72.0055 70.7927 73.702L70.7927 73.702Z" fill="url(#paint0_linear)"/>
<path d="M81.3343 92.5486C81.2193 92.537 81.1054 92.5165 80.9936 92.4875L74.2764 90.7413C73.8498 90.6305 73.4647 90.3975 73.1687 90.0709C72.8726 89.7443 72.6783 89.3384 72.6097 88.903L70.5505 75.8442C70.4049 75.2412 70.3082 74.6275 70.2614 74.0089L70.233 73.4438C70.1852 71.643 70.5566 69.8557 71.318 68.2231C72.0793 66.5904 73.2097 65.1571 74.62 64.0362C76.0303 62.9153 77.6818 62.1376 79.4442 61.7644C81.2065 61.3912 83.0315 61.4328 84.7751 61.8858L84.7263 62.0733C83.0016 61.626 81.1963 61.5881 79.4544 61.9624C77.7125 62.3367 76.0821 63.1129 74.6934 64.2291C73.3047 65.3453 72.1961 66.7706 71.4559 68.3913C70.7158 70.012 70.3647 71.7832 70.4306 73.5637L70.4536 73.9865C70.5001 74.5999 70.596 75.2085 70.7403 75.8064L72.8011 88.8728C72.8638 89.271 73.0414 89.6422 73.3122 89.9408C73.5829 90.2395 73.935 90.4525 74.3251 90.5539L81.0423 92.3C81.4572 92.4074 81.8953 92.3836 82.2961 92.2318C82.6969 92.0799 83.0408 91.8076 83.2805 91.4523L83.4412 91.5603C83.2121 91.9 82.8952 92.1713 82.5242 92.3453C82.1532 92.5193 81.742 92.5896 81.3343 92.5486Z" fill="#31B057"/>
<path d="M81.3343 92.5486C81.2193 92.537 81.1054 92.5165 80.9936 92.4875L74.2764 90.7413C73.8498 90.6305 73.4647 90.3975 73.1687 90.0709C72.8726 89.7443 72.6783 89.3384 72.6097 88.903L70.5505 75.8442C70.4049 75.2412 70.3082 74.6275 70.2614 74.0089L70.233 73.4438C70.1852 71.643 70.5566 69.8557 71.318 68.2231C72.0793 66.5904 73.2097 65.1571 74.62 64.0362C76.0303 62.9153 77.6818 62.1376 79.4442 61.7644C81.2065 61.3912 83.0315 61.4328 84.7751 61.8858L84.7263 62.0733C83.0016 61.626 81.1963 61.5881 79.4544 61.9624C77.7125 62.3367 76.0821 63.1129 74.6934 64.2291C73.3047 65.3453 72.1961 66.7706 71.4559 68.3913C70.7158 70.012 70.3647 71.7832 70.4306 73.5637L70.4536 73.9865C70.5001 74.5999 70.596 75.2085 70.7403 75.8064L72.8011 88.8728C72.8638 89.271 73.0414 89.6422 73.3122 89.9408C73.5829 90.2395 73.935 90.4525 74.3251 90.5539L81.0423 92.3C81.4572 92.4074 81.8953 92.3836 82.2961 92.2318C82.6969 92.0799 83.0408 91.8076 83.2805 91.4523L83.4412 91.5603C83.2121 91.9 82.8952 92.1713 82.5242 92.3453C82.1532 92.5193 81.742 92.5896 81.3343 92.5486Z" fill="url(#paint1_linear)"/>
<path d="M84.5661 77.8899L79.267 88.8069L79.4923 88.9163L84.7914 77.9993L84.5661 77.8899Z" fill="white"/>
<path d="M77.8927 76.1549L77.6426 76.1406L76.9523 88.2561L77.2024 88.2704L77.8927 76.1549Z" fill="white"/>
<path d="M80.174 98.2571L71.5667 96.0197C71.5027 96.0027 71.4481 95.9611 71.4148 95.9039C71.3814 95.8467 71.372 95.7787 71.3887 95.7146C71.4053 95.6506 71.4467 95.5957 71.5036 95.562C71.5606 95.5283 71.6286 95.5185 71.6927 95.5348L80.3 97.7722C80.332 97.7803 80.3621 97.7947 80.3886 97.8144C80.415 97.8342 80.4372 97.8591 80.4541 97.8875C80.4709 97.9159 80.4819 97.9474 80.4865 97.9801C80.4911 98.0128 80.4892 98.0461 80.4809 98.078C80.4726 98.11 80.458 98.14 80.4381 98.1663C80.4181 98.1926 80.3932 98.2147 80.3647 98.2314C80.3361 98.248 80.3046 98.2589 80.2719 98.2633C80.2392 98.2677 80.2059 98.2656 80.174 98.2571Z" fill="#31B057"/>
<path d="M80.5861 96.4229L71.9788 94.1855C71.9468 94.1774 71.9167 94.163 71.8903 94.1432C71.8639 94.1234 71.8416 94.0986 71.8248 94.0702C71.808 94.0418 71.797 94.0103 71.7924 93.9776C71.7878 93.9449 71.7897 93.9116 71.798 93.8796C71.8063 93.8477 71.8208 93.8177 71.8408 93.7914C71.8607 93.7651 71.8857 93.7429 71.9142 93.7263C71.9427 93.7097 71.9742 93.6988 72.007 93.6944C72.0397 93.69 72.073 93.6921 72.1049 93.7006L80.7121 95.938C80.7441 95.9461 80.7742 95.9604 80.8007 95.9802C80.8271 96 80.8493 96.0249 80.8662 96.0533C80.883 96.0817 80.894 96.1132 80.8986 96.1459C80.9032 96.1786 80.9013 96.2118 80.893 96.2438C80.8847 96.2758 80.8701 96.3058 80.8502 96.3321C80.8302 96.3584 80.8053 96.3805 80.7768 96.3972C80.7482 96.4138 80.7167 96.4246 80.684 96.4291C80.6513 96.4335 80.618 96.4314 80.5861 96.4229Z" fill="#31B057"/>
<path d="M80.9982 94.5887L72.3909 92.3513C72.327 92.3343 72.2723 92.2926 72.239 92.2354C72.2056 92.1783 72.1962 92.1102 72.2129 92.0462C72.2295 91.9821 72.2709 91.9272 72.3279 91.8935C72.3848 91.8599 72.4528 91.8501 72.517 91.8664L81.1242 94.1037C81.1882 94.1208 81.2428 94.1624 81.2762 94.2196C81.3095 94.2768 81.3189 94.3448 81.3023 94.4089C81.2856 94.4729 81.2443 94.5278 81.1873 94.5615C81.1303 94.5952 81.0623 94.6049 80.9982 94.5887L80.9982 94.5887Z" fill="#31B057"/>
<path d="M75.4209 98.8677C77.1282 99.3115 78.7596 98.7197 79.0647 97.546L72.882 95.9388C72.5769 97.1126 73.7136 98.4239 75.4209 98.8677Z" fill="#31B057"/>
<path d="M80.9991 75.116C80.6319 75.0206 80.353 74.6944 80.2038 74.4797C80.1549 74.4092 80.1076 74.3366 80.0603 74.2637C79.888 73.9984 79.7254 73.748 79.4785 73.6009C78.9335 73.2762 78.2218 73.5808 77.5978 73.9216L77.4777 73.7018C78.1637 73.3269 78.9529 72.9963 79.6067 73.3857C79.9037 73.5626 80.0901 73.8496 80.2704 74.1272C80.3163 74.1979 80.3621 74.2684 80.4095 74.3367C80.5647 74.56 80.8819 74.9285 81.2657 74.8897C81.4288 74.8596 81.5841 74.7965 81.722 74.7042C81.8263 74.6417 81.9353 74.5874 82.0481 74.5419C82.2757 74.4597 82.5226 74.4467 82.7576 74.5046C82.9926 74.5624 83.2053 74.6884 83.3688 74.8668C83.4267 74.934 83.4809 75.0043 83.5312 75.0775C83.6304 75.2166 83.724 75.3479 83.8574 75.4057C84.0545 75.4915 84.2816 75.3968 84.5221 75.2969C84.7703 75.1937 85.0268 75.087 85.2994 75.1473C85.3082 75.1493 85.3171 75.1514 85.3259 75.1537C85.8092 75.2793 85.9806 75.8451 86.0676 76.2633L85.8223 76.3143C85.704 75.7459 85.5198 75.4506 85.2451 75.3919C85.0499 75.3487 84.8403 75.4359 84.6184 75.5282C84.3402 75.6439 84.0523 75.7635 83.7577 75.6356C83.5605 75.5501 83.4418 75.3838 83.3272 75.2229C83.2822 75.1573 83.2337 75.0941 83.182 75.0337C83.0515 74.8938 82.8831 74.795 82.6974 74.7493C82.5116 74.7036 82.3166 74.713 82.1361 74.7764C82.0356 74.8175 81.9384 74.8663 81.8453 74.9223C81.6779 75.0328 81.489 75.1066 81.291 75.139C81.1931 75.1488 81.0943 75.141 80.9991 75.116Z" fill="white"/>
<path d="M126.21 131.915L125.785 135.428L125.221 135.402C125.221 135.402 124.4 132.594 123.948 131.915H126.21Z" fill="#2F2E41"/>
<path d="M120.441 48.4394C123.19 48.4394 125.418 46.2111 125.418 43.4625C125.418 40.7138 123.19 38.4856 120.441 38.4856C117.693 38.4856 115.464 40.7138 115.464 43.4625C115.464 46.2111 117.693 48.4394 120.441 48.4394Z" fill="#A0616A"/>
<path d="M117.614 46.2903C117.614 46.2903 118.518 50.8147 115.804 51.9458C113.089 53.0769 109.017 53.7556 109.696 58.0538C110.375 62.352 130.734 60.0898 131.639 58.5063C132.544 56.9227 132.318 56.4703 132.318 56.4703C132.318 56.4703 134.128 53.5294 125.531 51.2672C125.531 51.2672 121.686 50.8147 123.043 47.1952C124.4 43.5756 117.614 46.2903 117.614 46.2903Z" fill="#FFB9B9"/>
<path d="M112.637 62.3521C112.637 62.3521 113.994 76.1516 112.41 77.7351C110.827 79.3187 106.755 91.7609 110.827 93.7969C114.899 95.8329 130.056 99.4524 131.413 93.1182C132.206 89.2463 131.812 85.2251 130.282 81.5809L128.246 72.532L128.472 62.8045L112.637 62.3521Z" fill="#31B057"/>
<path d="M110.148 63.0308L111.279 71.6272C111.279 71.6272 110.375 75.9254 110.375 83.617C110.375 91.3085 108.791 94.2494 111.053 94.4756C113.315 94.7018 112.411 87.689 112.411 87.689L115.351 74.1156C115.351 74.1156 115.125 63.9356 114.447 63.7094C113.768 63.4832 110.148 63.0308 110.148 63.0308Z" fill="#FFB9B9"/>
<path d="M128.925 63.0308L129.151 72.7583L131.639 84.0694C131.639 84.0694 130.282 91.9872 132.544 91.3085C134.806 90.6299 133.449 83.8432 133.449 83.8432C133.449 83.8432 134.354 73.2108 132.997 70.7223L132.77 61.8997L128.925 63.0308Z" fill="#FFB9B9"/>
<path d="M116.28 37.8017C115.908 38.0033 115.583 38.2826 115.329 38.6207C115.171 38.8962 115.05 39.1911 114.969 39.498C114.645 40.4814 114.179 41.4117 113.584 42.2587C113.164 42.8558 112.673 43.4264 112.455 44.1232C112.162 45.0647 112.423 46.1125 112.946 46.9488C113.469 47.7851 114.229 48.4432 115.003 49.0547C115.422 49.3858 115.904 49.7243 116.436 49.6777C116.772 49.6167 117.093 49.4901 117.381 49.3052C119.302 48.3004 121.655 48.2635 123.693 49.005C124.494 49.2966 125.261 49.7034 126.098 49.8643C126.405 49.9233 126.759 49.936 126.992 49.7274C127.164 49.5368 127.262 49.2904 127.268 49.0335C127.354 48.2997 127.304 47.5563 127.122 46.8402C126.989 46.3202 126.788 45.8188 126.674 45.2942C126.484 44.4161 126.546 43.501 126.392 42.6157C126.219 41.7631 125.919 40.9409 125.504 40.176C124.951 39.0843 124.277 38.0122 123.284 37.297C122.157 36.4852 121.199 36.6356 119.923 36.7082C119.306 36.7433 118.769 36.683 118.16 36.8742C117.497 37.1022 116.865 37.4139 116.28 37.8017Z" fill="#1B0E2D"/>
<path d="M113.768 58.7327C113.768 58.7327 110.374 57.3753 109.696 57.8278C109.017 58.2802 108.112 63.4833 108.791 63.9358C109.47 64.3882 109.696 63.2571 110.601 64.162C111.506 65.0669 111.506 65.2931 112.637 64.8407C113.768 64.3882 114.899 64.6145 114.899 64.8407C114.899 65.0669 128.698 64.3882 128.925 64.162C129.151 63.9358 130.056 63.7096 130.961 63.7096C131.866 63.7096 132.997 63.2571 133.449 62.8047C133.902 62.3522 133.449 62.5785 134.128 62.5785C134.806 62.5785 135.485 62.5785 135.033 61.8998C134.58 61.2211 133.223 56.4705 132.544 56.4705C131.866 56.4705 128.925 59.8638 121.912 59.4113C114.899 58.9589 113.768 58.7327 113.768 58.7327Z" fill="#31B057"/>
<path d="M129.597 91.6836L128.62 101.402C128.62 101.402 130.006 111.715 129.324 116.828C128.642 121.942 127.571 127.564 127.571 127.564L124.79 127.253C124.79 127.253 124.8 122.23 124.335 120.466C123.869 118.703 123.815 109.808 123.815 109.808C123.815 109.808 122.255 104.996 122.523 103.591C122.791 102.185 122.081 95.2045 122.081 95.2045L129.597 91.6836Z" fill="#FFB9B9"/>
<path d="M111.506 92.2134L113.768 101.715C113.768 101.715 113.768 112.121 115.125 117.098C116.482 122.075 118.292 127.504 118.292 127.504L121.007 126.825C121.007 126.825 120.328 121.848 120.554 120.039C120.781 118.229 119.65 109.406 119.65 109.406C119.65 109.406 120.554 104.429 120.102 103.072C119.65 101.715 119.423 94.7018 119.423 94.7018L111.506 92.2134Z" fill="#FFB9B9"/>
<path d="M122.133 135.008C122.045 135.258 121.89 135.48 121.685 135.648C121.12 136.073 119.749 136.055 118.643 135.87C118.613 135.865 118.584 135.858 118.555 135.854C118.069 135.791 117.597 135.645 117.161 135.422C116.482 134.969 117.161 133.838 117.613 133.838C118.066 133.838 118.292 132.028 118.292 132.028C118.314 131.42 118.389 130.814 118.518 130.219C118.745 129.088 117.613 127.956 117.613 127.504C117.613 127.052 121.233 126.147 121.233 126.147C121.233 126.147 121.912 129.314 122.138 129.992C122.364 130.671 122.364 132.707 122.364 132.707C122.364 132.707 122.502 134.08 122.133 135.008Z" fill="#666666"/>
<path opacity="0.2" d="M122.133 135.008C122.045 135.258 121.891 135.48 121.685 135.648C121.12 136.073 119.749 136.055 118.643 135.87C119.036 134.632 119.878 132.399 120.781 132.481C121.432 132.54 121.866 133.811 122.133 135.008Z" fill="black"/>
<path d="M123.726 134.442C123.814 134.693 123.969 134.914 124.174 135.082C124.74 135.508 126.111 135.49 127.217 135.304C127.246 135.3 127.276 135.293 127.305 135.288C127.791 135.225 128.262 135.079 128.699 134.856C129.377 134.404 128.699 133.273 128.246 133.273C127.794 133.273 127.568 131.463 127.568 131.463C127.546 130.854 127.47 130.248 127.341 129.653C127.115 128.522 128.246 127.391 128.246 126.938C128.246 126.486 124.627 125.581 124.627 125.581C124.627 125.581 123.948 128.748 123.722 129.427C123.496 130.105 123.496 132.141 123.496 132.141C123.496 132.141 123.358 133.515 123.726 134.442Z" fill="#666666"/>
<path opacity="0.3" d="M123.726 134.442C123.814 134.692 123.969 134.914 124.174 135.082C124.739 135.508 126.11 135.49 127.217 135.304C126.823 134.067 125.981 131.834 125.079 131.915C124.427 131.974 123.993 133.245 123.726 134.442Z" fill="black"/>
</g>
<defs>
<linearGradient id="paint0_linear" x1="64.6281" y1="95.2608" x2="96.6089" y2="78.0325" gradientUnits="userSpaceOnUse">
<stop stop-color="#31B057"/>
<stop offset="1" stop-color="#008427" stop-opacity="0"/>
</linearGradient>
<linearGradient id="paint1_linear" x1="65.1709" y1="96.3643" x2="91.2639" y2="87.9166" gradientUnits="userSpaceOnUse">
<stop stop-color="#31B057"/>
<stop offset="1" stop-color="#008427" stop-opacity="0"/>
</linearGradient>
<clipPath id="clip0">
<rect width="195.23" height="147" fill="white"/>
</clipPath>
</defs>
</svg>
